<svg id="cb5a1a01-f95e-42f5-8ef1-4372c004a5a1" viewbox="0 0 52 52"><g data-name="106" id="fbb89afc-ba12-4a42-b9d9-ebac85d52ffe"><path d="M39.461 20.934C38.037 12.869 33.072 8.717 26 8.717s-12.038 4.152-13.461 12.217c-1.31 7.421-3.766 13.861 1.3 18.381 2.732 2.431 7.536 2.135 12.161 2.076 4.625.059 9.428.355 12.156-2.076 5.071-4.515 2.614-10.96 1.305-18.381z"></path><path d="M26 11.135c-7.039 0-11.36 6.324-10.829 15.005.464 7.579 4.872 12.917 10.829 12.917 5.955 0 10.364-5.338 10.828-12.917.531-8.681-3.79-15.005-10.828-15.005z" fill="#fff" stroke="#bfbfbf" stroke-width="2.475"></path><path d="M18.265 11.135L26 9.252l7.811 2.115 3.689 6.424 2.078 10.139-1.827 1.236-4.417-14.833A22.247 22.247 0 0 0 26 13.416c-4.981 0-7.75 5.084-7.75 5.084l-4.416 13-1.414-3.57 2.08-10.139z"></path><path d="M14.417 29.75s11.167-5.584 15-14.917c0 0 2 6.917 8.583 14.917L33.834 13.5l-8.25-2.667-10.667 7.333z"></path></g></svg>