<svg id="e6c0a6fc-d1dd-47fc-9463-b6c9739290c7" viewbox="0 0 52 52"><g data-name="7" id="cedfd718-536a-48c1-a98b-9e6af16d335e"><path d="M42.662 34.858L39.816 31.3l2.728-3.557-2.609-2.553a19.546 19.546 0 0 0-.119-4.287 13.878 13.878 0 0 0-27.633 0 19.373 19.373 0 0 0-.118 4.287l-2.609 2.553 2.727 3.557-2.846 3.558 3.563 3.558-3.444 3.854 4.8 3.2 3.913-3.2 3.914 3.2L26 43.042l3.913 2.431 3.914-3.2 3.913 3.2 4.8-3.2-3.44-3.857z"></path><path d="M26 11.317c-7.039 0-11.36 6.324-10.829 15.005C15.635 33.9 20.044 39.238 26 39.238s10.364-5.337 10.828-12.916c.532-8.681-3.79-15.005-10.828-15.005z" fill="#fff" stroke="#bfbfbf" stroke-width="2.475"></path><path d="M35.049 23.692l4.026 3.26.415-6.405-4.921-8.716L26 9.151l-8.564 2.685-4.038 9.601-.474 5.515 4.026-3.26 3.867-4.641-.387-2.707 2.693-1.726L26 16.872l2.876-2.254 2.692 1.594-.386 2.83 3.867 4.65z"></path></g></svg>