<svg id="1b6fe0b7-8f0f-49fd-9a79-fded4b15dab3" viewbox="0 0 52 52"><g data-name="105" id="5cd81e56-1a05-4c1c-9f82-0fe26b0e264e"><path d="M39.758 20.7C37.8 12.4 33.073 8.484 26 8.484S14.2 12.4 12.243 20.7c-1.849 7.843-.782 12.1 1.126 16.681 2.876 6.907 4.981 7.363 4.981 7.363l3.913-1.424L26 45.693l3.736-2.373 3.913 1.424s2.106-.456 4.982-7.363c1.908-4.581 2.975-8.838 1.127-16.681z"></path><path d="M26 11.336c-7.039 0-11.36 6.324-10.829 15.005.465 7.579 4.873 12.917 10.829 12.917s10.365-5.338 10.828-12.917C37.36 17.66 33.038 11.336 26 11.336z" fill="#fff" stroke="#bfbfbf" stroke-width="2.475"></path><path d="M31.083 17.446s1.75 3.137 3.75 7.637c1.92 4.32 4.568 10.2 4.568 10.2V22.3l-4.388-9.6L26 8.783 16.987 12.7 12.6 22.3v12.987s4.792-6.06 8.318-9.564a83.542 83.542 0 0 1 10.165-8.277z"></path></g></svg>