<svg id="144f92de-24ac-41dd-be6e-32cca8f2b7fa" viewbox="0 0 52 52"><g data-name="39" id="ed8b78b7-78b1-4fa4-b771-7ffe6e5fe6b5"><path d="M26 11.122c-7.039 0-11.36 6.324-10.829 15.005.464 7.579 4.873 12.916 10.829 12.916s10.364-5.337 10.828-12.916c.532-8.681-3.79-15.005-10.828-15.005z" fill="#fff" stroke="#bfbfbf" stroke-width="2.475"></path><path d="M36.21 10.649A6.28 6.28 0 0 0 33.973 9.4c-.524-.2-2.456 1.915-2.456 1.915s-.58-2.821-1.271-2.953A22.751 22.751 0 0 0 26 7.951c-4.628.01-9.369 1.714-10.21 2.7-1.7 1.991-2.7 9.4-2.089 12.859h1.964a42.75 42.75 0 0 1 .692-4.548c.825-2.5 4.318-4.615 9.642-4.615s8.817 2.114 9.642 4.615a42.75 42.75 0 0 1 .692 4.548H38.3c.614-3.458-.39-10.87-2.09-12.861z"></path></g></svg>