<svg id="931170d8-1d4b-4dd6-a6ec-94b277ff9dff" viewbox="0 0 52 52"><g data-name="56" id="31ac9555-8738-4189-90fa-b88292cd4eb6"><path d="M26 11.049c-7.039 0-11.36 6.324-10.829 15.005.464 7.58 4.873 12.917 10.829 12.917s10.364-5.337 10.828-12.917c.532-8.681-3.79-15.005-10.828-15.005z" fill="#fff" stroke="#bfbfbf" stroke-width="2.475"></path><path d="M27.391 14.994l.696 3.789 3.559-2.784 3.249 3.249 1.083-.929 1.432 6.33h1.12l.696-8.65-2.63-1.624-.773-4.564-5.337-.696L26 6.641l-4.487 2.474-5.337.696-.773 4.564-2.63 1.624.696 8.65h1.12l1.433-6.33 1.083.929 3.248-3.249 2.398 2.784 4.64-3.789z"></path></g></svg>