<svg id="6816200a-c1fd-48ad-abb4-7c8c1b73a8ac" viewbox="0 0 52 52"><g data-name="81" id="3fba4246-b2f6-4a0a-b1c6-fa76f9b9264b"><path d="M38.138 28.822l-4.616 13.355-3.712-2.51-3.815 3.25-3.816-3.25-3.713 2.51-4.615-13.355"></path><path d="M26 11.11c-7.04 0-11.36 6.324-10.829 15.005.459 7.579 4.868 12.916 10.829 12.916 5.955 0 10.364-5.337 10.828-12.916C37.354 17.434 33.033 11.11 26 11.11z" fill="#fff" stroke="#bfbfbf" stroke-width="2.475"></path><path d="M33.007 11.034s6.188 2.062 6.6 9.9c.242 4.61-1.125 8.094-2.181 12.381 0 0-.918-10.924-1.761-14.313a10.555 10.555 0 0 0-3.334-5.333c-7.5 10.333-12 13.25-12 13.25l.3-7.016c-1.547 2.243-6.07 13.412-6.07 13.412-1.056-4.287-2.877-7.818-2.181-12.381 1.048-6.867 5.673-12.89 12.169-13.406 6.382-.508 8.458 3.506 8.458 3.506z"></path></g></svg>