<svg class="_31GRkaKLLh07JK-xJvjUvH_0" viewbox="0 0 48 48"><path d="M15.7 17.27h-5.13a6.73 6.73 0 0 0 0 13.46h5.13a6.73 6.73 0 1 0 0-13.46zM6.32 24a4.26 4.26 0 0 1 4.25-4.25h.91A4.82 4.82 0 0 0 9.21 24a4.82 4.82 0 0 0 2.27 4.25h-.91A4.26 4.26 0 0 1 6.32 24zm9.38 4.25h-.91A4.82 4.82 0 0 0 17.06 24a4.82 4.82 0 0 0-2.27-4.25h.91a4.25 4.25 0 1 1 0 8.5zM37.43 17.27H32.3a6.73 6.73 0 0 0 0 13.46h5.13a6.73 6.73 0 0 0 0-13.46zM28.05 24a4.25 4.25 0 0 1 4.25-4.25h.91A4.82 4.82 0 0 0 30.94 24a4.82 4.82 0 0 0 2.27 4.25h-.91A4.25 4.25 0 0 1 28.05 24zm9.38 4.25h-.91A4.82 4.82 0 0 0 38.79 24a4.82 4.82 0 0 0-2.27-4.25h.91a4.25 4.25 0 0 1 0 8.5z"></path></svg>