<svg id="1bc992a8-bcb9-47ec-8b0a-d156ab1813c3" viewbox="0 0 52 52"><g data-name="5" id="3f153bfc-af39-4cc9-bf5f-89b3da922f3a"><path d="M26 7.921c7.073 0 14 6.091 15.006 13.361A27.8 27.8 0 0 1 39.4 34.625l-.635-1.819s-2.423 5.162-3.865 6.884l-1.72-3.232-3.024 5.32-2.134-2.43L26 42.552l-2.017-3.2-2.133 2.43-3.025-5.32-1.719 3.228c-1.447-1.722-3.868-6.884-3.868-6.884l-.638 1.819A27.788 27.788 0 0 1 11 21.282c1-7.27 7.927-13.361 15-13.361z"></path><path d="M26 11.15c-7.038 0-11.359 6.324-10.828 15.005.464 7.58 4.873 12.916 10.828 12.916 5.955 0 10.364-5.336 10.828-12.916C37.36 17.474 33.039 11.15 26 11.15z" fill="#fff" stroke="#bfbfbf" stroke-width="2.475"></path><path d="M11.846 18.034l10.3-9.253 13.135 2.91 3.4 8.276.421 8.324-1.968 2.431-1.531-5.4-2.488-7.942a28.211 28.211 0 0 1-16.721 7.945l-1.532 5.4-1.962-2.434z"></path></g></svg>