<svg id="081199b2-bcf0-4b28-96be-a12423949b67" viewbox="0 0 52 52"><g data-name="80" id="c6aec926-e9f8-4105-9de4-6fd7d0a05f19"><path d="M26 25.423l12.125 2.16-.042 12.377-2.333 3.75-2.917-2.793-2.922 2.917-3.911-3-3.911 3-2.923-2.917-2.917 2.793-2.333-3.75-.042-12.377L26 25.423M12.107 20.307l1.471 2.384 1.784.117.655-4.814-1.625-.245-2.285 2.558z"></path><path d="M11.812 25.25l1.438 2.875 2.662-.618.025-4.045-2.443.038-1.682 1.75zM39.893 20.307l-1.471 2.384-1.784.117-.655-4.814 1.625-.245 2.285 2.558zM40.187 25.25l-1.437 2.875-2.662-.618-.026-4.045 2.444.038 1.681 1.75z"></path><path d="M26 11.117c-7.038 0-11.359 6.323-10.828 15C15.639 33.7 20.048 39.038 26 39.038c5.955 0 10.364-5.337 10.828-12.917.536-8.681-3.786-15.004-10.828-15.004z" fill="#fff" stroke="#bfbfbf" stroke-width="2.475"></path><path d="M15.249 16.875L16.374 18l3-3.125-.375-2.5.75-.5L21.624 14l3-.625L26 9.83l-4.001-.58-2.166 2.416-1.084.709-3.375 1.25-.125 3.25zM36.75 16.875L35.625 18l-3-3.125.375-2.5-.75-.5L30.375 14l-3-.625L26 9.83l4-.58 2.167 2.416 1.083.709 3.375 1.25.125 3.25z"></path></g></svg>