<svg id="ce9c0ce1-b493-4709-b5c2-117ffcec97d6" viewbox="0 0 52 52"><g data-name="25" id="bce7677a-6a1e-46d1-9155-6360a5e47f94"><path d="M40.5 20.373C38.27 13.1 33.073 8.84 26 8.84S13.73 13.1 11.5 20.373c-1.69 5.515-1.245 13.165 2.134 20.369A27.555 27.555 0 0 1 26 37.718a27.546 27.546 0 0 1 12.363 3.024c3.38-7.204 3.825-14.854 2.137-20.369z"></path><path d="M26 11.205c-7.039 0-11.36 6.324-10.829 15 .464 7.58 4.873 12.917 10.829 12.917s10.364-5.337 10.828-12.917c.532-8.676-3.79-15-10.828-15z" fill="#fff" stroke="#bfbfbf" stroke-width="2.475"></path><path d="M36.407 16.46l-2.983-5.41L26 9.503l-7.581 1.624-2.827 5.333-2.401 6.137h25.617l-2.401-6.137z"></path></g></svg>