<svg id="426bdfc3-86e6-4939-9b6d-0db11033e918" viewbox="0 0 52 52"><g data-name="28" id="9d85a539-c2d5-4194-88c5-682dcd039382"><path d="M20.142 33.5c0-1.843-.928-3.336-2.075-3.336s-2.075 1.493-2.075 3.336a4.51 4.51 0 0 0 .614 2.365 3.088 3.088 0 0 0-2.187 1.648 4.391 4.391 0 0 0-.608 2.637 2.672 2.672 0 0 0-2.6-.34c-1.484.533-3.606 2.455-3.274 3.759s2.988 1.494 4.472.962a3.119 3.119 0 0 0 2.154-2.844c.941.726 2.386.137 3.261-1.349a3.938 3.938 0 0 0 .368-3.524c1.086-.107 1.95-1.544 1.95-3.314zM31.857 33.5c0-1.843.929-3.336 2.075-3.336s2.075 1.493 2.075 3.336a4.519 4.519 0 0 1-.613 2.365 3.09 3.09 0 0 1 2.186 1.648 4.4 4.4 0 0 1 .609 2.637 2.669 2.669 0 0 1 2.6-.34c1.484.533 3.606 2.455 3.274 3.759s-2.988 1.494-4.473.962a3.12 3.12 0 0 1-2.152-2.844c-.942.726-2.388.137-3.262-1.349a3.938 3.938 0 0 1-.368-3.524c-1.087-.107-1.951-1.544-1.951-3.314z"></path><path d="M26 11.292c-7.038 0-11.359 6.324-10.828 15 .464 7.58 4.873 12.917 10.828 12.917 5.955 0 10.364-5.337 10.828-12.917.531-8.676-3.79-15-10.828-15z" fill="#fff" stroke="#bfbfbf" stroke-width="2.475"></path><path d="M40.5 20.905A14.287 14.287 0 0 0 26 8.483a14.287 14.287 0 0 0-14.5 12.422c-.642 3.808.355 6.849 1.513 8.272a47.289 47.289 0 0 0 6.4-8.093c2.313-4 3.488-6.157 3.488-6.157l3.094.2 3.094-.2s1.176 2.154 3.489 6.157a47.343 47.343 0 0 0 6.4 8.093c1.165-1.423 2.162-4.464 1.522-8.272z"></path></g></svg>