<svg id="8a371241-de1a-42ff-9298-e8c658eb6816" viewbox="0 0 52 52"><g data-name="20" id="c4b6f583-c765-468c-918a-64c411690466"><path d="M39.757 20.7C37.8 12.4 33.073 8.485 26 8.485S14.2 12.4 12.243 20.7c-1.849 7.843-.783 12.1 1.126 16.681 2.876 6.907 4.981 7.363 4.981 7.363l3.913-1.424L26 45.693l3.736-2.373 3.913 1.424s2.1-.456 4.981-7.363c1.909-4.581 2.976-8.838 1.127-16.681z"></path><path d="M26 11.336c-7.039 0-11.36 6.325-10.829 15.005.464 7.579 4.873 12.916 10.829 12.916s10.364-5.337 10.828-12.916c.532-8.68-3.79-15.005-10.828-15.005z" fill="#fff" stroke="#bfbfbf" stroke-width="2.475"></path><path d="M33.424 21.352l-.386-3.906s.633 3.767 1.857 8.276a40.386 40.386 0 0 0 4.505 9.565V22.3l-4.388-9.6L26 8.784 16.986 12.7 12.6 22.3v12.987a40.414 40.414 0 0 0 4.507-9.565c1.223-4.509 1.856-8.276 1.856-8.276l-.386 3.906z"></path></g></svg>