<svg id="2ec1b9a8-64b7-47d0-8742-730cb036f58c" viewbox="0 0 52 52"><g data-name="54" id="191aee2a-8dfc-4bf7-b795-d80a9cbc60ea"><path d="M26 33.891s6.768.712 11.137-2.45c4.847-3.506 7.013-8.971 4.95-15.159-2.3-6.9-7-9.5-16.087-9.5s-13.789 2.6-16.088 9.5c-2.063 6.188.1 11.653 4.949 15.159C19.231 34.6 26 33.891 26 33.891z"></path><path d="M26 11.1c-7.039 0-11.36 6.323-10.829 15 .464 7.585 4.873 12.922 10.829 12.922s10.364-5.337 10.828-12.918C37.36 17.424 33.038 11.1 26 11.1z" fill="#fff" stroke="#bfbfbf" stroke-width="2.475"></path><path d="M26 8.7l5.336 1.857 6.5 4.95 1.083 10.518-1.679 6.55-2.371-2.375a16.538 16.538 0 0 0 .721-5.26 25.442 25.442 0 0 0-1.134-5.156l-2.166-2.367s-1.186.722-6.29.722-6.291-.722-6.291-.722l-2.166 2.371a25.486 25.486 0 0 0-1.135 5.156 16.557 16.557 0 0 0 .722 5.26l-2.371 2.371-1.676-6.548 1.083-10.518 6.5-4.95z"></path></g></svg>