<svg id="e67ad03c-43a0-48f2-a06b-2ec0ec908707" viewbox="0 0 52 52"><g data-name="66" id="45e6632a-aa3c-4174-b952-1c57815073a7"><path d="M26 11.2c-7.039 0-11.36 6.324-10.829 15 .464 7.58 4.873 12.917 10.829 12.917 5.955 0 10.363-5.337 10.828-12.917.531-8.681-3.79-15-10.828-15z" fill="#fff" stroke="#bfbfbf" stroke-width="2.475"></path><path d="M26 8.735a12.549 12.549 0 0 0-12.5 12.81v6.511h1.36l.31-5.956.929 2.784 1-4.022 1.779 3.326s2.939-8.122 5.8-10.6l1.315.85 1.315-.85c2.862 2.474 5.8 10.6 5.8 10.6l1.779-3.326 1.013 4.023.929-2.784.309 5.955H38.5v-6.511A12.55 12.55 0 0 0 26 8.735z"></path></g></svg>