<svg id="581a34c8-b029-4dc4-9260-483ad05e797b" viewbox="0 0 52 52"><g data-name="52" id="24be7ff1-2693-4848-9df5-2e191b545e87"><path d="M26 11.2c-7.038 0-11.359 6.324-10.828 15.005.463 7.574 4.872 12.911 10.828 12.911 5.955 0 10.364-5.337 10.828-12.916.531-8.681-3.79-15-10.828-15z" fill="#fff" stroke="#bfbfbf" stroke-width="2.475"></path><path d="M26 15.3l2.167-2.012a11.532 11.532 0 0 1 1.933 6.338l6.5.773.386 5.415 1.083.386.31-4.409c0-8.739-5.3-12.9-12.376-12.9s-12.375 4.161-12.375 12.9l.31 4.409 1.083-.386.379-5.414 6.5-.773a11.532 11.532 0 0 1 1.934-6.343z"></path></g></svg>