<svg id="16e0d5c3-16a5-4517-a663-19632c116641" viewbox="0 0 52 52"><g data-name="86" id="4970c0b8-db3d-4df9-a992-8a789910a97d"><path d="M26 11.171c-7.039 0-11.36 6.324-10.829 15.005.464 7.58 4.873 12.916 10.829 12.916s10.364-5.336 10.828-12.916C37.36 17.5 33.038 11.171 26 11.171z" fill="#fff" stroke="#bfbfbf" stroke-width="2.475"></path><path d="M36.83 16.044c-.987-2.233-4.642-6.187-10.83-6.187s-9.843 3.954-10.83 6.187c-2.555 5.781-1.561 10.28-1.237 15.572h1.34c-.309-4.95.181-11.093 1.2-13.135 1.134-2.268 2.7-3 4.312-2.7 2.051.381 2.532 1.95 5.213 1.95s3.162-1.569 5.213-1.95c1.612-.3 3.178.431 4.312 2.7 1.021 2.042 1.511 8.185 1.2 13.135h1.34c.328-5.292 1.322-9.791-1.233-15.572z"></path></g></svg>