<svg id="52d2c6be-9fb3-4cd3-a990-5a90359548fe" viewbox="0 0 52 52"><g data-name="111" id="71002417-1be0-4522-8178-6c59c8bebbc9"><path d="M20.142 33.5c0-1.842-.928-3.336-2.074-3.336s-2.076 1.494-2.076 3.336a4.507 4.507 0 0 0 .614 2.365 3.087 3.087 0 0 0-2.187 1.649 4.388 4.388 0 0 0-.608 2.636 2.669 2.669 0 0 0-2.6-.339c-1.484.533-3.606 2.455-3.274 3.758s2.988 1.5 4.473.962a3.119 3.119 0 0 0 2.153-2.843c.941.726 2.387.136 3.262-1.35a3.941 3.941 0 0 0 .368-3.524c1.086-.107 1.949-1.543 1.949-3.314zM31.858 33.5c0-1.842.928-3.336 2.074-3.336s2.075 1.494 2.075 3.336a4.507 4.507 0 0 1-.613 2.365 3.089 3.089 0 0 1 2.186 1.645 4.4 4.4 0 0 1 .61 2.636 2.663 2.663 0 0 1 2.6-.339c1.484.533 3.607 2.455 3.275 3.758s-2.988 1.5-4.474.962a3.117 3.117 0 0 1-2.151-2.843c-.943.726-2.389.136-3.263-1.35a3.941 3.941 0 0 1-.368-3.524c-1.088-.103-1.951-1.539-1.951-3.31z"></path><path d="M26 11.292c-7.038 0-11.359 6.325-10.828 15.005.464 7.58 4.873 12.916 10.828 12.916 5.955 0 10.365-5.336 10.828-12.916.532-8.68-3.79-15.005-10.828-15.005z" fill="#fff" stroke="#bfbfbf" stroke-width="2.475"></path><path d="M40.5 20.906A14.287 14.287 0 0 0 26 8.483a14.287 14.287 0 0 0-14.5 12.423c-.641 3.808.356 6.849 1.513 8.272a47.317 47.317 0 0 0 6.4-8.094c2.313-4 3.489-6.156 3.489-6.156l3.093.2 3.094-.2s1.176 2.154 3.489 6.156a47.352 47.352 0 0 0 6.4 8.094c1.164-1.423 2.162-4.464 1.522-8.272z"></path><path d="M16.094 13.563h19.812v9.188H16.094z"></path></g></svg>