<svg id="87bc4863-b502-4904-8600-99c973619ce1" viewbox="0 0 52 52"><g data-name="102" id="3560bccf-2bc1-4044-a945-09e74fd09952"><path d="M26 45.821l3.094-3.581 2.4 2.516a13.558 13.558 0 0 0 4.408-4.33 14.035 14.035 0 0 0 1.932-5.026l.976 1.268s1.448-1.363 2.04-6.048a28.777 28.777 0 0 0-.559-9.309C40.291 14.234 33.073 8.5 26 8.5s-14.291 5.734-14.291 12.809a28.842 28.842 0 0 0-.559 9.309c.594 4.685 2.041 6.048 2.041 6.048l.975-1.268a14.058 14.058 0 0 0 1.934 5.028 13.577 13.577 0 0 0 4.409 4.33l2.4-2.516z"></path><path d="M26 11.344c-7.038 0-11.359 6.324-10.828 15.005.464 7.579 4.873 12.917 10.828 12.917 5.955 0 10.364-5.338 10.828-12.917.532-8.681-3.789-15.005-10.828-15.005z" fill="#fff" stroke="#bfbfbf" stroke-width="2.475"></path><path d="M26 12.5l9.191 7.918s.865 7.4-.218 10.262c0 0 3.954-.951 5.022-2.434l-.771-8.657-4.15-7.709L26 9.685l-9.072 2.2-4.152 7.709-.77 8.657c1.067 1.483 5.022 2.434 5.022 2.434-1.083-2.862-.218-10.262-.218-10.262z"></path><path d="M16 21.084L17.416 25s2.25-.5 5-4l-1 4.333a20.565 20.565 0 0 0 10.917-8L30.749 12 26 10.333 15.249 17z"></path></g></svg>