<svg id="e925c81d-01c1-45ed-8375-dc421dca1f5f" viewbox="0 0 52 52"><g data-name="21" id="84056884-1abb-4cb6-9af2-073367d1ddc3"><path d="M39.46 20.933C38.037 12.869 33.073 8.717 26 8.717s-12.038 4.152-13.461 12.216c-1.31 7.422-3.766 13.862 1.3 18.382C16.571 41.746 21.375 41.45 26 41.39c4.625.06 9.428.356 12.156-2.075 5.07-4.515 2.614-10.96 1.304-18.382z"></path><path d="M26 11.135c-7.039 0-11.36 6.324-10.829 15.005.464 7.579 4.873 12.916 10.829 12.916s10.364-5.337 10.828-12.916c.532-8.681-3.79-15.005-10.828-15.005z" fill="#fff" stroke="#bfbfbf" stroke-width="2.475"></path><path d="M18.265 11.135L26 9.252l7.811 2.115 3.689 6.424 2.079 10.139-1.779 6.582L34.123 22.3A32.745 32.745 0 0 0 26 21.407a32.759 32.759 0 0 0-8.124.889L14.2 34.512l-1.78-6.582 2.08-10.139z"></path></g></svg>