<svg id="c534e074-cff8-4ff0-b614-06e14e27bd19" viewbox="0 0 52 52"><g data-name="14" id="ab6385d2-efe4-44bd-920d-7ee8b2e60a6e"><path d="M26 45.6c3.913 0 9.823-.7 11.6-3.48 1.574-2.464 0-5.723 0-5.723l-.183-3.784h1.113s2.088-3.023.99-11.208S33.073 8.535 26 8.535 13.578 13.217 12.48 21.4s.989 11.208.989 11.208h1.112l-.181 3.786s-1.575 3.259 0 5.723C16.176 44.9 22.086 45.6 26 45.6z"></path><path d="M26 11.334c-7.039 0-11.36 6.324-10.829 15.005.464 7.58 4.873 12.916 10.829 12.916s10.364-5.336 10.828-12.916c.532-8.681-3.79-15.005-10.828-15.005z" fill="#fff" stroke="#bfbfbf" stroke-width="2.475"></path><path d="M39.085 24.011l-2.1-8.81-8.325-6.078-9.08 1.592-6.093 7.9L13 24.011l.627 8.539h2.412V24.2a23.04 23.04 0 0 0 13.518-7.9 16.252 16.252 0 0 0 2.4 4.08 25.006 25.006 0 0 0 4.007 3.811v8.359h2.413z"></path></g></svg>