<svg id="ab54d90e-41df-4db4-bf2e-fd3fea647e15" viewbox="0 0 52 52"><g data-name="37" id="c1d3eb75-fe12-4f32-aae1-1dcc10b33e3b"><path d="M26 11.25c-7.039 0-11.36 6.324-10.829 15.005.464 7.58 4.873 12.916 10.829 12.916s10.364-5.336 10.828-12.916C37.36 17.574 33.038 11.25 26 11.25z" fill="#fff" stroke="#bfbfbf" stroke-width="2.475"></path><path d="M40.143 22.159c0-7.073-7.07-12.6-14.143-12.6s-14.144 5.527-14.144 12.6c0 0-.533 5.427 2.313 8.985l3.5-8.541 2.7 3.025 2.918-3.29 2.7 3.2 2.7-3.2 2.918 3.29 2.7-3.025 3.5 8.541c2.871-3.558 2.338-8.985 2.338-8.985z"></path></g></svg>