<svg id="3122d000-9a29-4ba6-989a-1915a1b9d6a6" viewbox="0 0 52 52"><g data-name="130" id="1d05e911-e35d-44f1-9160-0ef1fd35f632"><path d="M37.771 20.257s-5.57 5-2.4 8.3A34.216 34.216 0 0 1 41.7 38.2s4.754-7.705 3.084-12.9c-1.398-4.35-7.013-5.043-7.013-5.043z"></path><path d="M26 11.278c-7.038 0-11.36 6.325-10.829 15.005C15.636 33.862 20.044 39.2 26 39.2c5.955 0 10.364-5.337 10.829-12.916.532-8.684-3.79-15.006-10.829-15.006z" fill="#fff" stroke="#bfbfbf" stroke-width="2.475"></path><path d="M26 13.5s-.944-.785-3.5-.25c-3.582.75-4.29 11.409-4.29 11.409-.574 2.32-2.273 19.541-2.273 19.541-1.019-3.016-4.246-18.536-3.549-23.1C13.435 14.234 20.123 8.819 26 8.819c5.878 0 12.566 5.415 13.613 12.282.7 4.563-2.53 20.083-3.549 23.1 0 0-1.7-17.221-2.274-19.541 0 0-.708-10.659-4.291-11.409C26.945 12.715 26 13.5 26 13.5z"></path></g></svg>