<svg id="9124d232-ca69-4565-a7de-24b2ed7de0c9" viewbox="0 0 52 52"><g data-name="49" id="7ef8f6b5-20d1-4eda-be86-cd75adf9896f"><path d="M26 11.149c-7.039 0-11.36 6.324-10.829 15C15.635 33.733 20.044 39.07 26 39.07s10.364-5.337 10.828-12.917c.532-8.68-3.79-15.004-10.828-15.004z" fill="#fff" stroke="#bfbfbf" stroke-width="2.475"></path><path d="M26 6.663l2.011 1.7 1.47-.928 1.16 1.165 2.088-1.315 1.083 2.4 1.856-.542.464 1.547 2.785-.619.231 17.317h-2.629a44.669 44.669 0 0 0-.851-6.952 16.026 16.026 0 0 0-2.63-5.956 25.95 25.95 0 0 1-7.038.768 25.954 25.954 0 0 1-7.039-.773 16.044 16.044 0 0 0-2.63 5.956 44.737 44.737 0 0 0-.85 6.952h-2.63l.232-17.317 2.784.619.464-1.547 1.857.542 1.082-2.4 2.088 1.32 1.161-1.161 1.469.928L26 6.663z"></path></g></svg>