<svg id="351be1ee-a2d1-4788-9bca-188ee4d28142" viewbox="0 0 52 52"><g data-name="4" id="aebba617-5cd9-47ab-bedd-96c53e7745cd"><path d="M39.283 23.994v-1.572c0-7.073-6.211-13.935-13.284-13.935s-13.282 6.862-13.282 13.935v1.572l-1.245 21.464h29.055z"></path><path d="M26 11.324c-7.038 0-11.359 6.324-10.828 15.005.463 7.579 4.872 12.916 10.828 12.916 5.955 0 10.364-5.337 10.828-12.916.531-8.681-3.79-15.005-10.828-15.005z" fill="#fff" stroke="#bfbfbf" stroke-width="2.475"></path><path d="M38.926 22.88l-3.083-9.418-9.844-4.953-9.842 4.953-3.084 9.418-.178 4.497 4.684-4.367h16.84l4.685 4.367-.178-4.497z"></path></g></svg>