<svg id="8f88ff25-9349-42a5-88e8-8490e9357b73" viewbox="0 0 52 52"><g data-name="57" id="9676071f-dc03-4ca3-a82b-283ebbe89327"><path d="M26 11.076c-7.039 0-11.36 6.324-10.829 15.005C15.635 33.661 20.044 39 26 39s10.364-5.337 10.828-12.917C37.36 17.4 33.038 11.076 26 11.076z" fill="#fff" stroke="#bfbfbf" stroke-width="2.475"></path><path d="M13.383 24.534a21.041 21.041 0 0 0 .745 3.326l4.354-8.93-5.265 2.2s.083 2.244.166 3.404zM38.782 21.131l-5.265-2.2 4.353 8.93a20.924 20.924 0 0 0 .745-3.326c.085-1.161.167-3.404.167-3.404z"></path><path d="M26 7.534a12.809 12.809 0 0 0-12.808 12.81v2.025h.664S15.945 16.49 26 16.49s12.143 5.879 12.143 5.879h.664v-2.025A12.809 12.809 0 0 0 26 7.534z" fill="gray"></path><path d="M26 18.669c7.085 0 10.454 2.877 11.9 4.744a1.767 1.767 0 0 0 .941-.967s-2.355-6.3-12.838-6.3-12.84 6.3-12.84 6.3a1.769 1.769 0 0 0 .943.967c1.439-1.867 4.809-4.744 11.894-4.744z" fill="#404040"></path><path d="M28.419 7.771a12.464 12.464 0 0 0-4.838 0c-2.648 1.345-6.769 4.6-7.094 11.863h.031a10.888 10.888 0 0 1 1.294-.989c.758-7.326 5.73-9.7 7.569-10.327V16.5c.2-.006.407-.014.619-.014s.414.008.618.014V8.32c1.839.627 6.811 3 7.569 10.327a10.807 10.807 0 0 1 1.294.989h.031c-.325-7.269-4.446-10.52-7.093-11.865z" fill="#404040"></path></g></svg>