<svg id="92957c56-b3d7-4511-bd9d-7347fcd13501" viewbox="0 0 52 52"><g data-name="100" id="b6b9ad1b-5e13-4839-9406-ddc86415b80f"><path d="M26 45.6c3.913 0 9.823-.7 11.6-3.481 1.574-2.465 0-5.723 0-5.723l-.184-3.785h1.114s2.088-3.022.99-11.207S33.073 8.535 26 8.535 13.578 13.217 12.48 21.4s.989 11.207.989 11.207h1.111l-.18 3.787s-1.574 3.258 0 5.723C16.176 44.9 22.086 45.6 26 45.6z"></path><path d="M26 11.334c-7.039 0-11.36 6.324-10.829 15.005.464 7.579 4.872 12.916 10.829 12.916 5.955 0 10.365-5.337 10.828-12.916.532-8.681-3.79-15.005-10.828-15.005z" fill="#fff" stroke="#bfbfbf" stroke-width="2.475"></path><path d="M26 23.941c4.266.066 8.115-.046 9.963.254v8.356h2.412L39 24.012l-.488-5.4-6.094-7.9L26 9.123l-6.42 1.592-6.092 7.9-.49 5.4.627 8.539h2.412V24.2A75.171 75.171 0 0 1 26 23.941z"></path></g></svg>