<svg id="1998de9d-bf75-499e-a096-084beb9f23f8" viewbox="0 0 52 52"><g data-name="33" id="3fed5af3-0658-4484-ba2d-8afe7d842181"><path d="M26 11.157c-7.039 0-11.36 6.324-10.829 15.005.464 7.58 4.873 12.916 10.829 12.916s10.364-5.336 10.828-12.916c.532-8.681-3.79-15.005-10.828-15.005z" fill="#fff" stroke="#bfbfbf" stroke-width="2.475"></path><path d="M38.808 22.361a12.808 12.808 0 1 0-25.616 0 23.464 23.464 0 0 0 .622 7.442l1.334-6.76 2.223 2.846 1.691-4.9 2.529 2.765 2.363-4.554L26 23.487l2.045-4.287 2.363 4.555 2.53-2.765 1.69 4.9 2.224-2.846 1.334 6.76a23.5 23.5 0 0 0 .622-7.443z"></path></g></svg>