<svg id="0f40c086-f349-4ece-8460-3aefb86efe91" viewbox="0 0 52 52"><g data-name="36" id="0243b30f-4f37-4b2c-aafc-fc089fab3bce"><path d="M26 11.248c-7.039 0-11.36 6.324-10.829 15.005.464 7.58 4.873 12.916 10.829 12.916s10.364-5.336 10.828-12.916c.532-8.681-3.79-15.005-10.828-15.005z" fill="#fff" stroke="#bfbfbf" stroke-width="2.475"></path><path d="M26 9.6c7.2 0 9.251 1.512 9.251 1.512 4.357 7.116 3.468 17.878 3.468 17.878h-1.512L36.21 22l-2.166-5.149s-1.818 1.48-8.044 1.48-8.045-1.48-8.045-1.48L15.79 22l-1 6.987h-1.51s-.889-10.762 3.469-17.878c0 0 2.051-1.509 9.251-1.509z"></path></g></svg>