<svg id="2059dade-f5ed-4a71-ac5f-d56df4374f58" viewbox="0 0 52 52"><g data-name="34" id="8ad11637-14e4-4b25-b5ab-fd9c91291861"><path d="M26 11.061c-7.038 0-11.359 6.324-10.828 15 .464 7.58 4.873 12.917 10.828 12.917 5.955 0 10.364-5.337 10.828-12.917.531-8.676-3.79-15-10.828-15z" fill="#fff" stroke="#bfbfbf" stroke-width="2.475"></path><path d="M17.999 20.875l-3.937 6.75-.438-6.187 4.375-.563zM34.124 20.875l3.938 6.75.437-6.187-4.375-.563z"></path><path d="M26 7.348c-6.59 0-12.762 5.647-12.762 15.469 0 0 4.476-2.475 12.762-2.475s12.763 2.475 12.763 2.475C38.762 13 32.589 7.348 26 7.348z" fill="gray"></path><path d="M22.566 14.114l.254 6.357c.4-.031.815-.057 1.239-.077l-.178-6.324zm2.856 6.239c.194 0 .38-.011.577-.011.229 0 .441.009.664.013v-6.33l-1.327.016zm-5.623-6.1l.4 6.525q.592-.093 1.233-.169l-.332-6.425zm-6.562 8.562s.144-.077.409-.2l-.213-2.705a21.449 21.449 0 0 0-.196 2.907zm3.837-8.373l.518 6.852c.382-.093.792-.183 1.222-.27l-.465-6.677zM15 14.606c-.182.371-.352.754-.508 1.153l.512 6.306c.351-.127.759-.26 1.214-.4l-.568-7.114zm12.937 5.788c.424.02.839.046 1.239.077l.254-6.357-1.315-.044zm8.4-5.84l-.569 7.114c.455.137.864.27 1.215.4l.512-6.306c-.156-.4-.327-.782-.51-1.153zm2.221 5.36l-.212 2.7c.263.122.407.2.407.2a21.585 21.585 0 0 0-.186-2.9zm-5.382 1.113c.43.086.84.176 1.223.269l.517-6.852-1.275-.1zm-2.614-.416c.427.051.837.107 1.233.169l.4-6.525-1.3-.071z" fill="#404040"></path><path d="M14.953 14.71a16.185 16.185 0 0 0-.665 1.594A31.056 31.056 0 0 1 26 14.232 31.044 31.044 0 0 1 37.71 16.3a15.939 15.939 0 0 0-.663-1.594A33.276 33.276 0 0 0 26 13a33.276 33.276 0 0 0-11.047 1.71zM33.157 11.752a.7.7 0 0 0 .672-.121l.665-.609q-.248-.256-.507-.5a.555.555 0 0 0-.112.073l-.794.728a.236.236 0 0 0 .076.429zM32.573 9.4a12 12 0 0 0-1.313-.78.226.226 0 0 0 .14.338l1 .406a.579.579 0 0 0 .173.036zm-8.255.96l1.184.576a1.147 1.147 0 0 0 .887 0c.245-.119.245-.313 0-.432l-1.183-.576a1.14 1.14 0 0 0-.888 0c-.245.12-.245.314 0 .433zm1.6-1.908a1.135 1.135 0 0 0 .886 0l1.184-.576c.181-.088.226-.217.141-.326a11.159 11.159 0 0 0-.928-.138.615.615 0 0 0-.1.032l-1.183.576c-.244.12-.244.314.002.433zm7.442 2.4a.237.237 0 0 0-.077-.427l-1-.405a.7.7 0 0 0-.674.122.236.236 0 0 0 .077.425l1 .406a.7.7 0 0 0 .676-.121zm-9.042-2.124L25.5 9.3a1.147 1.147 0 0 0 .887 0c.245-.119.245-.313 0-.432L25.206 8.3a1.132 1.132 0 0 0-.888 0c-.245.114-.245.307 0 .428zm10.519 3.357a.7.7 0 0 0-.673.12l-.8.729a.235.235 0 0 0 .078.425.691.691 0 0 0 .671-.12l.8-.729a.235.235 0 0 0-.076-.425zm-1.969-1.942a.691.691 0 0 0 .6-.074c-.188-.154-.379-.3-.573-.444l-.1.093a.235.235 0 0 0 .073.425zm.707 1.891l-1-.406a.7.7 0 0 0-.674.12.235.235 0 0 0 .077.425l1 .408a.694.694 0 0 0 .67-.122.235.235 0 0 0-.073-.425zm-14.444-1.891a.235.235 0 0 0 .077-.425l-.1-.093c-.2.141-.386.29-.574.444a.691.691 0 0 0 .597.074zm.292 1.485l-1 .406a.235.235 0 0 0-.077.425.7.7 0 0 0 .672.122l1-.408a.236.236 0 0 0 .078-.425.7.7 0 0 0-.673-.12zm8.567-.916a1.138 1.138 0 0 0-.887 0l-1.183.576c-.246.12-.246.314 0 .433a1.153 1.153 0 0 0 .886 0l1.184-.576c.245-.12.245-.313 0-.433zm-10.156 1.493a.7.7 0 0 0-.672-.12.236.236 0 0 0-.077.425l.795.729a.7.7 0 0 0 .673.12.235.235 0 0 0 .076-.425zm8.555-.067l-1.183-.575a1.132 1.132 0 0 0-.888 0c-.245.119-.245.313 0 .431l1.184.576a1.138 1.138 0 0 0 .887 0c.245-.119.245-.311 0-.432zm-7.548-.386a.236.236 0 0 0 .078-.426l-.8-.728a.555.555 0 0 0-.112-.073c-.173.16-.341.326-.508.5l.666.609a.7.7 0 0 0 .676.118zm9.149-2.674a1.147 1.147 0 0 0-.887 0l-1.183.577c-.246.119-.246.312 0 .432a1.135 1.135 0 0 0 .886 0l1.184-.577c.245-.119.245-.31 0-.432zm-1.6-1.409c.171-.083.215-.2.148-.307-.18-.007-.358-.014-.538-.014-.352 0-.7.02-1.051.051l.554.27a1.138 1.138 0 0 0 .886 0zM19.426 9.4a.579.579 0 0 0 .173-.036l1-.406a.225.225 0 0 0 .139-.338 12.08 12.08 0 0 0-1.312.78zm.285.619l-1 .405a.237.237 0 0 0-.076.427.7.7 0 0 0 .671.121l1-.406a.236.236 0 0 0 .077-.425.7.7 0 0 0-.672-.121z" fill="#404040"></path></g></svg>