<svg id="a97522ba-7078-48c9-9089-2edd71039020" viewbox="0 0 52 52"><g data-name="64" id="3e00432d-ebed-4393-b111-8520f274d39c"><path d="M25.999 38.5h-1.627l-3 2.375-1.875-3.375-2.5 2.5-6.004-13.798 1.623-3.79-1.236-5.027 3.943-4.022.311-3.326 3.48-.077 1.78-2.784 2.474 1.082 2.629-1.934h.004l2.629 1.934 2.475-1.082 1.779 2.784 3.48.077.311 3.326 3.943 4.022-1.236 5.027 1.623 3.79L35.001 40l-2.5-2.5-1.875 3.375-3-2.375h-1.627z"></path><path d="M26 11.043c-7.038 0-11.359 6.323-10.828 15C15.636 33.623 20.045 38.96 26 38.96c5.955 0 10.364-5.337 10.828-12.917.531-8.677-3.79-15-10.828-15z" fill="#fff" stroke="#bfbfbf" stroke-width="2.475"></path><path d="M26.927 19.241c3.094-1.083 4.023-2.4 4.023-2.4a14.584 14.584 0 0 0 4.641 4.176l1.547 6.96 1.547-2.628-.62-7.89-3.248-5.491L26 9.109l-8.817 2.862-3.248 5.491-.62 7.89 1.547 2.628 1.547-6.96a14.584 14.584 0 0 0 4.641-4.176 7.8 7.8 0 0 1 0 3.4 18.865 18.865 0 0 0 5.877-1.003z"></path></g></svg>