<svg id="5320712f-4270-4862-9023-c18feaa1dd50" viewbox="0 0 52 52"><g data-name="92" id="5398ae6a-64d7-45e6-9423-4348e56fcfa5"><path d="M38.38 28.185a4.937 4.937 0 1 0 4.937 4.936 4.936 4.936 0 0 0-4.937-4.936zm0 0a4.937 4.937 0 1 0 4.937 4.936 4.936 4.936 0 0 0-4.937-4.936"></path><path d="M26.147 11.264c-7.039 0-11.36 6.324-10.829 15.005.465 7.58 4.873 12.916 10.829 12.916 5.955 0 10.364-5.336 10.828-12.916.531-8.681-3.79-15.005-10.828-15.005z" fill="#fff" stroke="#bfbfbf" stroke-width="2.475"></path><path d="M26 14l10.57 10.281 2.446.5v-1.5a13.623 13.623 0 0 0-2.4-7.748 12.525 12.525 0 0 0-21.228 0 13.623 13.623 0 0 0-2.4 7.748v1.5l2.446-.5L26 14"></path><path d="M26.063 10.688l9.063 3.437L38 24.562a86.663 86.663 0 0 0-11.937-.874A88.371 88.371 0 0 0 14 24.562l3-10.437 9.063-3.437"></path></g></svg>