<svg id="f95e2ac0-32a1-4db4-9d29-1bbbcef699e9" viewbox="0 0 52 52"><g data-name="51" id="2425d42b-0f27-4f8a-a2f7-03ce51e9a01f"><path d="M26 11.173c-7.039 0-11.36 6.324-10.829 15.005C15.635 33.758 20.044 39.1 26 39.1s10.364-5.337 10.828-12.917c.532-8.683-3.79-15.01-10.828-15.01z" fill="#fff" stroke="#bfbfbf" stroke-width="2.475"></path><path d="M29.944 15.582a9.125 9.125 0 0 0 5.414 2.939l1.625 8.43 1.005.077.309-4.175C38.3 14.513 33.073 9.6 26 9.6s-12.3 4.913-12.3 13.253l.309 4.175 1.005-.077 1.625-8.43a9.125 9.125 0 0 0 5.414-2.939 7.373 7.373 0 0 1-2.4 4.1s7.047 1.159 10.291-4.1z"></path></g></svg>