<svg id="a90e513b-859a-4faa-8f2c-6ec2c50bd7d1" viewbox="0 0 52 52"><g data-name="117" id="d972bd46-d6a0-4c95-a9b1-97a34f593e86"><path d="M38.143 29.047L35.9 44.594l-3.635-4.332L26 45.289l-6.265-5.027-3.636 4.332-2.243-15.547"></path><path d="M26 11.336c-7.039 0-11.36 6.323-10.829 15C15.635 33.92 20.044 39.257 26 39.257S36.364 33.92 36.828 26.34c.532-8.681-3.79-15.004-10.828-15.004z" fill="#fff" stroke="#bfbfbf" stroke-width="2.475"></path><path d="M26 8.876c5.878 0 12.565 5.415 13.612 12.282a29.174 29.174 0 0 1-1.392 13.381S34.278 19.129 32 16.312c-2.375-2.937-6-1.187-6-1.187s-3.625-1.75-6 1.187c-2.278 2.817-6.221 18.227-6.221 18.227a29.187 29.187 0 0 1-1.392-13.381C13.434 14.291 20.121 8.876 26 8.876z"></path></g></svg>