<svg id="4e64577b-d885-4590-87f2-84fd4c09363a" viewbox="0 0 52 52"><g data-name="125" id="b2e14c35-1946-4b41-81d0-f8c8e7904392"><path d="M26 22.677l12.272.413 3.404 5.98-1.863.618.437 6.937-1.312-1.812-.5 3.187-2.063-1-2 2.625L26 35.938l-8.374 3.687-2-2.625-2.063 1-.5-3.187-1.312 1.812.437-6.937-1.863-.618 3.404-5.98L26 22.677z"></path><path d="M26 11.1c-7.039 0-11.36 6.323-10.829 15 .464 7.585 4.873 12.921 10.829 12.921 5.957 0 10.365-5.336 10.829-12.915C37.361 17.425 33.039 11.1 26 11.1z" fill="#fff" stroke="#bfbfbf" stroke-width="2.475"></path><path d="M26 8.86l10.961-2.34-2.234 4.15 7.449 3.299-3.469 2.511 3.469 12.387-2.301.883-1.5-6.625-1.625 6.25-8.666-16.292-2.082.75H26l-2.083-.75-8.666 16.292-1.625-6.25-1.5 6.625-2.301-.883 3.469-12.387-3.469-2.511 7.449-3.299-2.234-4.15L26 8.86z"></path></g></svg>