<svg id="ed80f560-14ff-4d69-8281-d9843826b39c" viewbox="0 0 52 52"><g data-name="95" id="8e4565e3-9776-4484-8661-0cbe368dc1cc"><path d="M26 8.484c7.074 0 12.5 5.812 13.922 12.809 1.449 7.124 2.563 14.734-6.627 23.926l-1.075-2.293-1.889 1.668-.387-2.321L26 45.693l-3.944-3.42-.387 2.321-1.89-1.668-1.072 2.293c-9.191-9.192-8.077-16.7-6.629-23.828C13.5 14.4 18.927 8.484 26 8.484z"></path><path d="M26 11.336c-7.038 0-11.359 6.324-10.828 15.005.463 7.579 4.872 12.917 10.828 12.917 5.956 0 10.364-5.338 10.828-12.917.532-8.681-3.79-15.005-10.828-15.005z" fill="#fff" stroke="#bfbfbf" stroke-width="2.475"></path><path d="M26 9.325l5.957.929 3.037 2.783 4.928 10.055-1.777 12.22-1.934-.927c1.778-10.287-.619-15.7-.619-15.7S28.048 11.5 26 11.5s-9.591 7.184-9.591 7.184-2.4 5.414-.618 15.7l-1.934.927-1.779-12.22 4.929-10.055 3.038-2.783z"></path><path d="M14 28s10.25-3.125 14.875-13.5c0 0 2.938 10.562 9.125 13.5l-1.25-11.5L26 10.062 15.749 15.75z"></path></g></svg>