<svg id="4971a07e-22de-41a1-ad37-c7703c3a2b6b" viewbox="0 0 52 52"><g data-name="61" id="e898c6b6-8963-4661-b67f-ca389fd654d4"><path d="M39.248 20.96c-1.361-7.148-6-12.221-13.072-12.221s-11.71 5.073-13.071 12.221c0 0-6.961 22.043 13.071 22.043S39.248 20.96 39.248 20.96z"></path><path d="M26.177 11.215c-7.038 0-11.36 6.323-10.828 15 .464 7.58 4.873 12.917 10.828 12.917 5.955 0 10.364-5.337 10.828-12.917.532-8.677-3.79-15-10.828-15z" fill="#fff" stroke="#bfbfbf" stroke-width="2.475"></path><path d="M33.911 39.677l5.723-9.745-2.089-12.221-3.4-5.568L26.1 8.9l-7.89 3.243-3.094 5.491-2.63 11.678 5.955 10.365a25.326 25.326 0 0 1-2.707-9.977c-.154-5.259 2.437-13.342 2.437-13.342s2.514 1.045 8 1.045 8.006-1.045 8.006-1.045 2.596 8.082 2.441 13.342a25.326 25.326 0 0 1-2.707 9.977z"></path><path d="M38.938 15.855a17.435 17.435 0 0 1 4.64 10.673 18.711 18.711 0 0 1-2.32 10.442l-3.016-6.342-2.089-13.381.929-3.171z"></path><path d="M35.222 14.532h3.228v2.32h-3.228z" fill="#bfbfbf" transform="rotate(-31.395 36.837 15.693)"></path></g></svg>