<svg id="8fa271b1-c679-4a2e-838f-65682166921b" viewbox="0 0 52 52"><g data-name="115" id="8fec302c-ce65-4585-8a62-caa5bd501c03"><path d="M26 11.049c-7.039 0-11.36 6.324-10.829 15.005.465 7.58 4.873 12.917 10.829 12.917 5.955 0 10.364-5.337 10.828-12.917.532-8.681-3.789-15.005-10.828-15.005z" fill="#fff" stroke="#bfbfbf" stroke-width="2.475"></path><path d="M27.392 17.711l.696 3.789 3.558-2.784 3.249 3.249 1.083-.929 1.433 3.613h1.119l.696-8.65-2.629-1.624-.774-4.564-5.337-.696L26 6.641l-4.486 2.474-5.337.696-.774 4.564-2.629 1.624.696 8.65h1.12l1.432-3.613 1.083.929 3.249-3.249 2.397 2.784 4.641-3.789z"></path></g></svg>