<svg id="8932bb72-05c0-4925-ac95-536597c8be9e" viewbox="0 0 52 52"><g data-name="127" id="2e39685c-4761-4aa5-bb33-2aed80966145"><path d="M26 11.194c-7.039 0-11.36 6.324-10.829 15.005.464 7.579 4.873 12.916 10.829 12.916 5.955 0 10.363-5.337 10.828-12.916.532-8.681-3.789-15.005-10.828-15.005z" fill="#fff" stroke="#bfbfbf" stroke-width="2.475"></path><path d="M26 13.166a11.157 11.157 0 0 1 7 2.5l2.813 8.367.019 1.634 3.5 2.167 3.583-6.417L41.333 18l.834-5.25-4.416-2.25-2.5-3.917-5.334.917S26.063 6.438 26 6.5c-.062-.062-3.917 1-3.917 1l-5.333-.917-2.5 3.917-4.417 2.25.834 5.25-1.584 3.417 3.583 6.417 3.5-2.167.019-1.634L19 15.666a11.157 11.157 0 0 1 7-2.5z"></path></g></svg>