<svg id="3ad31b17-74ce-47d8-8d66-8d1a1468559c" viewbox="0 0 52 52"><g data-name="90" id="776a2f9c-f953-4840-894c-04e066cc8da4"><path d="M26 39.818c3.336 0 7.038 1.082 10.055 1.237a10.351 10.351 0 0 0 6.729-1.779 7.44 7.44 0 0 1-3.326-6.11c.064-3.325.557-7.2 0-11.061C38.3 14.062 33.073 9.112 26 9.112c-7.074 0-12.3 4.95-13.459 12.993-.557 3.863-.063 7.736 0 11.061a7.44 7.44 0 0 1-3.326 6.11 10.351 10.351 0 0 0 6.729 1.779c3.017-.155 6.719-1.237 10.056-1.237"></path><path d="M26 11.277c-7.039 0-11.36 6.325-10.829 15.006C15.635 33.862 20.044 39.2 26 39.2s10.364-5.337 10.828-12.916C37.36 17.6 33.038 11.277 26 11.277z" fill="#fff" stroke="#bfbfbf" stroke-width="2.475"></path><path d="M38.808 22.434a12.808 12.808 0 1 0-25.616 0 23.49 23.49 0 0 0 .622 7.441l1.334-6.76 2.224 2.846 1.69-4.9 2.529 2.765 2.363-4.555L26 23.56l2.046-4.289 2.362 4.555 2.53-2.765 1.69 4.9 2.224-2.846 1.334 6.76a23.49 23.49 0 0 0 .622-7.441z"></path></g></svg>