<svg id="0c523360-54fd-4587-ad42-60e77f75bb60" viewbox="0 0 52 52"><g data-name="45" id="85e3ece8-0a9b-414c-94b3-bcffe5ce880a"><path d="M26 11.2c-7.039 0-11.36 6.324-10.829 15.005.464 7.58 4.873 12.916 10.829 12.916s10.364-5.336 10.828-12.916C37.36 17.525 33.038 11.2 26 11.2z" fill="#fff" stroke="#bfbfbf" stroke-width="2.475"></path><path d="M35.591 14.141A12.239 12.239 0 0 0 26 9.683a12.237 12.237 0 0 0-9.591 4.458c-3.636 4.794-2.949 11.973-2.94 12.219l3.945-8.816S20.43 15.455 26 15.455c5.569 0 8.585 2.089 8.585 2.089l3.944 8.816c.011-.246.696-7.425-2.938-12.219z"></path></g></svg>