<svg id="994c6894-ae84-497e-90cb-2db77c3b7a3c" viewbox="0 0 52 52"><g data-name="26" id="fe0c2983-63a8-46b7-b645-2c0324b66a3f"><path d="M26.282 11.128c-7.039 0-11.36 6.324-10.829 15 .464 7.58 4.873 12.917 10.829 12.917 5.955 0 10.364-5.337 10.828-12.917.532-8.676-3.79-15-10.828-15z" fill="#fff" stroke="#bfbfbf" stroke-width="2.475"></path><path d="M26.282 9.456a13.07 13.07 0 0 1 13.226 11.881c.379 5.282-.31 6.42-1.8 9.224 0 0-.754-3.887-1.451-7.213-.632-3.02-1.237-6.419-1.237-6.419v5.394H17.542v-5.394s-.606 3.4-1.238 6.419c-.7 3.326-1.45 7.213-1.45 7.213-1.489-2.8-2.178-3.942-1.8-9.224A13.07 13.07 0 0 1 26.282 9.456z"></path><path d="M35.331 13.139l-5.159 2.38-4.355-5.474a7.128 7.128 0 0 1 5.7-3.113c3.611.088 5.87 2.935 6.849 5.6 1.056 2.879 1 7.907 3.225 9.265a5.584 5.584 0 0 0 3.094.851s-2.676 5.279-7.657.387z"></path></g></svg>