<svg id="6d0a31c5-29b1-46dd-843c-b50a7ccdbce1" viewbox="0 0 52 52"><g data-name="58" id="0c6b3f5e-b18f-4b9a-9670-fdd66da712c7"><path d="M26 38.6c8.121 0 11.365-.011 14.148-3.724 2.445-3.261 1.369-7.878.006-14.85C38.761 12.912 33.072 7.962 26 7.962s-12.762 4.95-14.155 12.065c-1.363 6.972-2.439 11.589.006 14.85C14.634 38.59 17.878 38.6 26 38.6z"></path><path d="M26 11.056c-7.039 0-11.36 6.323-10.829 15C15.635 33.64 20.044 38.977 26 38.977c5.955 0 10.364-5.337 10.828-12.917.532-8.681-3.789-15.004-10.828-15.004z" fill="#fff" stroke="#bfbfbf" stroke-width="2.475"></path><path d="M26 8.272l9.823 4.175 3.558 8.663-.232 11.756-1.779.851s-2.552-10.673-2.785-14.773L28.94 10.9 26 10.359l-2.94.541-5.645 8.044c-.233 4.1-2.785 14.773-2.785 14.773l-1.779-.851-.232-11.756 3.558-8.663z"></path></g></svg>