<svg id="16a0c498-2f9f-4db0-b0b7-9b3700f49972" viewbox="0 0 52 52"><g data-name="112" id="7a2e3844-408f-46db-898a-e388b8e155ba"><path d="M26 22.75l-7.941.083-1.346 11.358-1.147 4.494 1.702 2.629-1.555 4.169-.449-3.922-2.405-2.799.266-4.887-1-3.75 4.5-10.75L35.5 19.25l4.375 10.875-1 3.75.266 4.887-2.405 2.799-.449 3.922-1.555-4.169 1.702-2.629-1.147-4.494-1.346-11.358L26 22.75"></path><path d="M26 11.22c-7.038 0-11.359 6.325-10.828 15.006.464 7.579 4.873 12.916 10.828 12.916 5.955 0 10.364-5.337 10.828-12.916C37.36 17.545 33.039 11.22 26 11.22z" fill="#fff" stroke="#bfbfbf" stroke-width="2.475"></path><path d="M26 8.613a14.958 14.958 0 0 0-14.409 12.423c-.983 6.272.487 9.752.487 9.752s2.43-3.607 6.433-8.675c2.255-2.854 6.374-6.172 7.489-9.569M26 8.613a14.958 14.958 0 0 1 14.41 12.423c.983 6.272-.486 9.752-.486 9.752s-2.43-3.607-6.434-8.675c-2.254-2.854-6.373-6.172-7.488-9.569"></path><path d="M32.939 7.265l-3.825 1.157L26 6.376l-3.113 2.046-3.825-1.157-1.334 6.138 8.272-.8 8.273.8-1.334-6.138z"></path><path d="M36.094 22.75H16.281v-9.187L26 11.313l10.094 2.25v9.187z"></path></g></svg>