<svg id="b1c60132-5864-4a73-9e27-c124e5f43bd6" viewbox="0 0 52 52"><g data-name="110" id="0bb49654-df22-4882-b780-ede3d6a7341d"><path d="M39.254 23.111s.092 6.909 1.422 10.407c1.691 4.447.711 8.894-2.579 11.65l-1.957-4.18a8.525 8.525 0 0 1-3.825 3.291 15.617 15.617 0 0 1-12.631 0 8.526 8.526 0 0 1-3.824-3.291l-1.96 4.18c-3.291-2.756-4.27-7.2-2.58-11.65 1.33-3.5 1.423-10.407 1.423-10.407z"></path><path d="M26 11.31c-7.039 0-11.36 6.325-10.829 15.005C15.635 33.9 20.044 39.23 26 39.23s10.364-5.335 10.828-12.915C37.36 17.635 33.038 11.31 26 11.31z" fill="#fff" stroke="#bfbfbf" stroke-width="2.475"></path><path d="M39.431 19.139A13.224 13.224 0 0 0 26 8.021a13.223 13.223 0 0 0-13.43 11.118c-.979 5.514-1.513 8.894-4.181 10.5 0 0 6.294.712 9.763-5.959 2.276-4.378 2.112-6.4 2.112-6.4L26 15.047l5.736 2.224s-.163 2.026 2.113 6.4c3.469 6.671 9.762 5.959 9.762 5.959-2.668-1.597-3.201-4.977-4.18-10.491z"></path><path d="M34 21.125l-2.667 4-2.667-4-2.666 4-2.667-4-2.667 4-2.666-4v-8.209h16.041L34 21.125z"></path></g></svg>