<svg id="4e690f8b-922e-40c7-8046-66b7b7755df9" viewbox="0 0 52 52"><g data-name="29" id="460208bf-0e0e-4665-9203-a8e5b0a3e12d"><path d="M26 22.75l-7.941.084-1.346 11.357-1.147 4.493 1.702 2.63-1.555 4.169-.449-3.921-2.405-2.8.266-4.887-1-3.75 4.5-10.75L35.5 19.25l4.375 10.875-1 3.75.266 4.887-2.405 2.8-.449 3.921-1.555-4.169 1.702-2.63-1.147-4.493-1.346-11.357L26 22.75"></path><path d="M26 11.22c-7.038 0-11.359 6.325-10.828 15.005.464 7.58 4.873 12.917 10.828 12.917 5.955 0 10.364-5.337 10.828-12.917C37.36 17.545 33.039 11.22 26 11.22z" fill="#fff" stroke="#bfbfbf" stroke-width="2.475"></path><path d="M26 12.544c3.1 9.427 13.923 18.244 13.923 18.244s1.47-3.48.487-9.752A14.958 14.958 0 0 0 26 8.613a14.958 14.958 0 0 0-14.409 12.423c-.983 6.272.487 9.752.487 9.752S22.906 21.971 26 12.544z"></path><path d="M32.939 7.265l-3.825 1.157L26 6.376l-3.113 2.046-3.825-1.157-1.334 6.138L26 12.602l8.273.801-1.334-6.138z"></path></g></svg>