<svg id="da328813-36f9-47a1-8d9b-a1f9567b77ce" viewbox="0 0 52 52"><g data-name="98" id="f9fa0030-f059-46d6-a8de-ef4e591e6ac4"><path d="M37.742 30.629l2.431 1.126-1.009-10.081A13.356 13.356 0 0 0 26 8.866a13.356 13.356 0 0 0-13.163 12.808l-1.009 10.081 2.432-1.126s-1.187 7.412-2.729 8.775l7 .119L26 39.107l7.473.416 7-.119c-1.545-1.363-2.731-8.775-2.731-8.775z"></path><path d="M26 11.148c-7.038 0-11.359 6.325-10.828 15.006C15.636 33.733 20.045 39.07 26 39.07c5.955 0 10.364-5.337 10.828-12.916.532-8.681-3.789-15.006-10.828-15.006z" fill="#fff" stroke="#bfbfbf" stroke-width="2.475"></path><path d="M21.729 25.344a13.738 13.738 0 0 0 3.687-2.01A4.155 4.155 0 0 0 27.333 21L29 23.833a20.762 20.762 0 0 0 2.75-2.916 27.894 27.894 0 0 0 1.584-2.75l2.73 5.645 1.625 6.938 1.187-8.562-3.312-8.25L30.6 10.25 26 9.312l-4.6.938-4.96 3.688-3.313 8.25 1.188 8.562 1.625-6.938a31.193 31.193 0 0 0 5.229-1.645z"></path></g></svg>