<svg id="952eacae-a0bc-4d2f-8983-9675b44f2797" viewbox="0 0 52 52"><g data-name="63" id="ad7b6ad4-1098-4f60-ac1e-c0da1a2f80c0"><path d="M39.071 22.9s.618 14.772 2.088 16.783a32.152 32.152 0 0 1-5.1-2.088l.773 4.176-6.187-2.707L26 43l-4.642-3.945-6.187 2.707.773-4.176a32.152 32.152 0 0 1-5.1 2.088c1.465-2.007 2.084-16.774 2.084-16.774"></path><path d="M26 11.215c-7.039 0-11.36 6.324-10.829 15.005.464 7.58 4.873 12.917 10.829 12.917S36.364 33.8 36.828 26.22c.532-8.681-3.79-15.005-10.828-15.005z" fill="#fff" stroke="#bfbfbf" stroke-width="2.475"></path><path d="M31.645 18.718a26.014 26.014 0 0 0 3.791 2.4c.7 2.32.077 11.834.077 11.834 3.171-2.011 4.927-5.774 4.1-11.911C38.684 14.154 31.878 8.756 26 8.756s-12.685 5.4-13.613 12.282c-.828 6.137.928 9.9 4.1 11.911 0 0-.619-9.514.077-11.834 0 0 3.4-1.547 4.95-3.79l-.7 3.867s6.187-1.469 8.2-5.645a9 9 0 0 0 2.631 3.171z"></path></g></svg>