<svg id="c0fdb16e-997f-415a-aa4d-dbe540441658" viewbox="0 0 52 52"><g data-name="31" id="5ad61f8e-7fd7-4dbf-a90e-21697ff4fe2e"><path d="M26 11.169c-7.039 0-11.36 6.324-10.829 15.005C15.635 33.753 20.044 39.09 26 39.09s10.364-5.337 10.828-12.916c.532-8.681-3.79-15.005-10.828-15.005z" fill="#fff" stroke="#bfbfbf" stroke-width="2.475"></path><path d="M26 6.452l2.887 2.63 6.549-1.445 1.341 5.879 4.692 2.99-2.089 5.8 1.934 2.32-1.624 2.38-1.625 3.964h-1.778l.386-9.9-3.093-2.707-2.244-3.4A22.568 22.568 0 0 0 26 14.418a22.587 22.587 0 0 0-5.338.541l-2.243 3.4-3.093 2.711.386 9.9h-1.778l-1.625-3.964-1.624-2.379 1.934-2.32-2.089-5.8 4.692-2.99 1.341-5.879 6.549 1.445L26 6.452z"></path></g></svg>