<svg id="763ef12f-d79d-4619-b62c-2680a5cb0ab5" viewbox="0 0 52 52"><g data-name="24" id="678e1bb5-cf94-46bf-861a-d08dde044e80"><path d="M26 40.97l5.094 2.707 3.939-3.165 4.811 3.011 2.4-4.254-1.469-3.553 1.237-3.707-2.864-7.049-.341-3.412a15.031 15.031 0 0 0-3.526-9.195c-1.7-1.779-3.662-2.5-6.446-3.083L26 9.182l-2.836.088c-2.784.582-4.745 1.3-6.446 3.083a15.031 15.031 0 0 0-3.527 9.195l-.34 3.412-2.862 7.049 1.238 3.707-1.47 3.553 2.4 4.254 4.812-3.011 3.939 3.165L26 40.97z"></path><path d="M26 11.271c-7.039 0-11.36 6.324-10.829 15 .464 7.58 4.873 12.916 10.829 12.916s10.364-5.336 10.828-12.916c.532-8.671-3.79-15-10.828-15z" fill="#fff" stroke="#bfbfbf" stroke-width="2.475"></path><path d="M37.291 18.077l-1.16-2.477-4.254-4.641L26 9.646l-6.111 1.47-3.094 3.4L14.4 18l-.318 3.876a40.665 40.665 0 0 0 3.8-5.16 52.914 52.914 0 0 0 8.118.432 52.905 52.905 0 0 0 8.123-.433 40.665 40.665 0 0 0 3.8 5.16z"></path></g></svg>