<svg id="9a69c681-f460-42b8-9ebb-13af3b81b0ca" viewbox="0 0 52 52"><g data-name="1" id="165b0673-0b43-4aef-a670-e57105c741a9"><path d="M26 11.032c-7.039 0-11.36 6.325-10.829 15.005.464 7.58 4.873 12.917 10.829 12.917 5.955 0 10.363-5.337 10.828-12.917.532-8.68-3.789-15.005-10.828-15.005z" fill="#fff" stroke="#bfbfbf" stroke-width="2.475"></path><path d="M13.14 29l3.075-3.271s11.563-2.224 17.523-7.383l2.312 3.38 2.619 8.174a18.118 18.118 0 0 0 .5-4.211v-2.4a13.626 13.626 0 0 0-2.4-7.748 12.791 12.791 0 0 0-21.52 0 13.626 13.626 0 0 0-2.4 7.748v2.4A18.282 18.282 0 0 0 13.14 29z"></path><path d="M34.895 8.891l-3.143 2.253-.948-3.558-3.013 1.85L26 6.105l-1.791 3.331-3.013-1.85-.948 3.558-3.143-2.253-.185 4.957 3.15 1.625 5.93-.297 5.93.297 3.15-1.625-.185-4.957z"></path></g></svg>