<svg id="a1300e7e-17be-49f9-a5c3-1ba1b3ae7ad5" viewbox="0 0 52 52"><g data-name="118" id="088e9151-58f8-4b33-b548-2235fd7dacc2"><path d="M26 35.625c9.5.25 14.221-2.878 14.5-5.625a27.626 27.626 0 0 0-2.125-13.375s-7-7.75-12.375-7.75-12.375 7.75-12.375 7.75A27.626 27.626 0 0 0 11.5 30c.279 2.747 5 5.875 14.5 5.625z"></path><path d="M26 11.215c-7.037 0-11.359 6.323-10.828 15C15.637 33.8 20.045 39.136 26 39.136c5.955 0 10.363-5.337 10.828-12.917.533-8.681-3.789-15.004-10.828-15.004z" fill="#fff" stroke="#bfbfbf" stroke-width="2.475"></path><path d="M26 14a28.625 28.625 0 0 1 6.375.875 20.256 20.256 0 0 1 3.875 8.375c.848 4.231 1.625 5.5 1.625 5.5l2.5-2.75S42.5 7.25 26 7.25 11.625 26 11.625 26l2.5 2.75s.778-1.269 1.625-5.5a20.256 20.256 0 0 1 3.875-8.375A28.625 28.625 0 0 1 26 14"></path></g></svg>