<svg id="607b2286-3350-4f18-9c82-b21ce7c037d1" viewbox="0 0 52 52"><g data-name="113" id="4a57b2b1-8434-4dd5-9136-eda313eba75d"><path d="M39.254 20.075a13.465 13.465 0 0 0-26.507 0c-1.245 6.108-1.093 8.865 1.778 11.237C18.617 34.692 26 34.692 26 34.692s7.383 0 11.475-3.38c2.873-2.372 3.025-5.129 1.779-11.237z"></path><path d="M26 11.171c-7.038 0-11.359 6.323-10.828 15.005.464 7.58 4.873 12.916 10.828 12.916 5.955 0 10.364-5.336 10.828-12.916.532-8.682-3.789-15.005-10.828-15.005z" fill="#fff" stroke="#bfbfbf" stroke-width="2.475"></path><path d="M38.364 18.734l-5.248-7.15L26 9.263l-7.115 2.321-5.248 7.15-.068 8.578s2.559-4 12.431-4 12.432 4 12.432 4z"></path></g></svg>