<svg id="5a58efef-78b9-48c5-ba9c-6481011d92ca" viewbox="0 0 52 52"><g data-name="93" id="33f4c5dd-239b-400f-8fa9-aaa2ad5bb10f"><path d="M39.283 24v-1.576c0-7.073-6.211-13.936-13.284-13.936s-13.282 6.863-13.282 13.936V24l-1.245 21.459h29.055z"></path><path d="M26 11.325c-7.038 0-11.359 6.324-10.828 15.005.463 7.58 4.872 12.916 10.828 12.916 5.955 0 10.364-5.336 10.828-12.916.531-8.681-3.79-15.005-10.828-15.005z" fill="#fff" stroke="#bfbfbf" stroke-width="2.475"></path><path d="M14.083 18.035l3.5-5.2 4.562-2.583 5.1-.917 6.584 2.75 4.851 7.885.42 3.03a5.468 5.468 0 0 1-3.772-2.166 27.715 27.715 0 0 1-2.75-4.5A22.048 22.048 0 0 1 16.393 23l-3.5-.083z"></path></g></svg>