<svg id="462e1bf9-ba61-4c36-94a3-f4d846896aa7" viewbox="0 0 52 52"><g data-name="91" id="96950b8a-3b4d-400c-9115-e38b2bbbb805"><path d="M26 11.033c-7.039 0-11.36 6.324-10.829 15.005.464 7.579 4.873 12.917 10.829 12.917s10.364-5.338 10.828-12.917c.532-8.681-3.79-15.005-10.828-15.005z" fill="#fff" stroke="#bfbfbf" stroke-width="2.475"></path><path d="M18.262 16.287l-2.312 5.442-2.619 8.171a18.116 18.116 0 0 1-.495-4.21v-2.4a13.624 13.624 0 0 1 2.4-7.748 12.79 12.79 0 0 1 21.519 0 13.617 13.617 0 0 1 2.4 7.748v2.4a18.116 18.116 0 0 1-.494 4.21l-2.611-8.171-2.313-5.442"></path><path d="M34.895 8.892l-3.143 2.253-.949-3.558-3.013 1.851L26 6.105l-1.791 3.333-3.013-1.851-.948 3.558-3.143-2.253-.186 4.958 3.15 1.624L26 15.177l5.93.297 3.15-1.624-.185-4.958z"></path><path d="M26 10.688l9.063 3.437V23.5A52.231 52.231 0 0 0 26 22.625a52.248 52.248 0 0 0-9.063.875v-9.375L26 10.688"></path></g></svg>