<svg id="642178ef-b657-4e59-95ed-4a81aacb3c42" viewbox="0 0 52 52"><g data-name="10" id="8bab59cd-0d61-4aaa-8688-e4b7d49bfae2"><path d="M39.638 19.8C37.919 13.692 33.072 8.475 26 8.475S14.08 13.692 12.361 19.8c-1.523 5.409-2.064 10.025.653 18.264 1.837 5.574 7.115 7.367 12.985 7.367s11.148-1.793 12.986-7.367c2.715-8.239 2.175-12.855.653-18.264z"></path><path d="M26 11.322c-7.038 0-11.359 6.324-10.828 15.005.464 7.58 4.873 12.916 10.828 12.916 5.955 0 10.364-5.336 10.828-12.916.531-8.681-3.79-15.005-10.828-15.005z" fill="#fff" stroke="#bfbfbf" stroke-width="2.475"></path><path d="M36.022 14.559l-3.677-3.854L26 9.46l-6.344 1.245-3.677 3.854-2.964 7.969.355 9.25s5.929-11.91 7.708-17.07L26 15.5l4.922-.79c1.779 5.16 7.71 17.07 7.71 17.07l.354-9.25z"></path></g></svg>