<svg id="f483a14e-ebc3-4429-8a6d-31cca0cadf57" viewbox="0 0 52 52"><g data-name="62" id="e9d96a23-412f-438b-90b6-b991df722c36"><path d="M26.007 11.176c-7.038 0-11.359 6.324-10.828 15.005.463 7.58 4.871 12.919 10.827 12.919 5.955 0 10.364-5.337 10.828-12.917.533-8.683-3.789-15.007-10.827-15.007z" fill="#fff" stroke="#bfbfbf" stroke-width="2.475"></path><path d="M36.031 21.927v8.894h2.475v-2.784l1.547-1.779-1.47-1.624 2.32-3.867-2.475-2.167c-1.933-6.5-5.348-9.7-12.422-9.7h.124c-7.073 0-10.488 3.2-12.421 9.7l-2.476 2.165 2.321 3.867-1.47 1.624 1.547 1.779v2.784h2.475v-8.892a20.945 20.945 0 0 0 10.9-2.939l-1 2.939a11.5 11.5 0 0 0 7.27-2.862l-.464 2.011 2.707-.619z"></path></g></svg>