<svg id="c916e65d-9cf7-4013-a67b-0624bd7ee724" viewbox="0 0 52 52"><g data-name="94" id="efa1f77e-0c4e-4573-95ad-6dcf0e7651af"><path d="M26 7.922c7.073 0 14 6.091 15.006 13.361A27.8 27.8 0 0 1 39.4 34.626l-.635-1.819s-2.421 5.162-3.867 6.884l-1.72-3.232-3.024 5.32-2.136-2.429L26 42.553l-2.017-3.2-2.133 2.426-3.025-5.32-1.719 3.232c-1.447-1.722-3.868-6.884-3.868-6.884l-.638 1.819A27.791 27.791 0 0 1 11 21.283c1-7.27 7.927-13.361 15-13.361z"></path><path d="M26 11.15c-7.038 0-11.359 6.325-10.828 15.006.464 7.579 4.873 12.916 10.828 12.916 5.955 0 10.364-5.337 10.828-12.916C37.36 17.475 33.039 11.15 26 11.15z" fill="#fff" stroke="#bfbfbf" stroke-width="2.475"></path><path d="M18.885 17.381l-4.022 13.342-1.968-2.432.421-8.322 3.403-8.277L26 8.688l9.281 3.004 3.404 8.277.421 8.322-1.968 2.432-4.023-13.342"></path><path d="M35.625 21.709l-2.5 2.166-2.312-2.166-2.375 2.104L26 21.709l-2.437 2.104-2.375-2.104-2.313 2.166-2.5-2.166L18 14.5l15.375-.5 2.25 7.709z"></path></g></svg>