<svg id="da8aa29c-7ff5-4904-b191-5940811fa3d8" viewbox="0 0 52 52"><g data-name="53" id="8207a640-b6df-49e2-8852-5e81e0234327"><path d="M26 36.686l6.5.31 5.955.851 2.63-2.63-1.317-3.017 1.547-2.01-1.547-2.244a13.449 13.449 0 0 0 .386-8.816C38 11.1 33.073 8.085 26 8.085S14 11.1 11.846 19.13a13.457 13.457 0 0 0 .386 8.816l-1.546 2.244 1.546 2.01-1.314 3.017 2.63 2.63L19.5 37z"></path><path d="M26 11.086c-7.038 0-11.359 6.323-10.828 15.005.464 7.579 4.873 12.916 10.828 12.916 5.955 0 10.364-5.337 10.828-12.916.532-8.682-3.789-15.005-10.828-15.005z" fill="#fff" stroke="#bfbfbf" stroke-width="2.475"></path><path d="M38.686 17.118L34.2 10.776 26 8.3l-8.2 2.474-4.487 6.342-.85 9.127A23.41 23.41 0 0 0 21.282 14.1l4.718.85 4.719-.85a23.41 23.41 0 0 0 8.817 12.142z"></path></g></svg>