<svg id="81f6015f-9117-4d38-a809-ce20b74f98aa" viewbox="0 0 52 52"><g data-name="15" id="1b7a1994-3948-427e-aac5-6cb427d83aba"><path d="M38.606 28.893l2.012 7.121-2.785 4.229 1.16 4.376-3.712-3.857-2.165 4.45-3.094-4.005L26 45.064l-4.023-3.857-3.094 4.005-2.165-4.45-3.713 3.857 1.161-4.376-2.785-4.229 2.011-7.121"></path><path d="M26 11.336c-7.039 0-11.36 6.324-10.829 15C15.635 33.92 20.044 39.257 26 39.257S36.364 33.92 36.828 26.34c.532-8.68-3.79-15.004-10.828-15.004z" fill="#fff" stroke="#bfbfbf" stroke-width="2.475"></path><path d="M39.535 26.5l.277-3.7v-1.577c0-7.074-6.739-12.267-13.812-12.267s-13.814 5.193-13.814 12.267v1.571l.278 3.7-.387 2.862 4.409 5.259 1.856-6.342-1.392-7.656 6.729-7.657L26 14.739l2.32-1.779 6.729 7.657-1.392 7.657 1.856 6.342 4.408-5.259z"></path></g></svg>