<svg id="533aa26e-a2c0-4c62-b282-4af67927039f" viewbox="0 0 52 52"><g data-name="18" id="70aafb2c-9ede-4ac9-9d01-18d2ace42e1e"><path d="M26 11.055c-7.039 0-11.36 6.324-10.829 15.005.464 7.579 4.873 12.916 10.829 12.916s10.364-5.337 10.828-12.916c.532-8.681-3.79-15.005-10.828-15.005z" fill="#fff" stroke="#bfbfbf" stroke-width="2.475"></path><path d="M26 9.894A12.808 12.808 0 0 0 13.191 22.7v5.22l3.617-7s3.143-2.606 9.192-2.606 9.19 2.608 9.19 2.608l3.618 7V22.7A12.808 12.808 0 0 0 26 9.894z"></path><path d="M31.218 11.629A5.219 5.219 0 1 1 26 6.41a5.218 5.218 0 0 1 5.218 5.219z"></path></g></svg>