<svg id="52d1b606-786d-4374-85bb-9d1892af59a2" viewbox="0 0 52 52"><g data-name="3" id="65b66f7f-36b2-4859-b542-6205339db236"><path d="M38.375 23.528s-.141 6.212 1.469 9.05c1.624 2.861 1.923 6.4-.851 8.585-2.552 2.011-6.27 2.383-12.993 2.383s-10.442-.372-12.995-2.383c-2.773-2.185-2.475-5.724-.85-8.585 1.61-2.838 1.469-9.05 1.469-9.05"></path><path d="M26 11.231c-7.039 0-11.36 6.324-10.829 15 .464 7.58 4.873 12.917 10.829 12.917s10.364-5.337 10.828-12.917c.532-8.676-3.79-15-10.828-15z" fill="#fff" stroke="#bfbfbf" stroke-width="2.475"></path><path d="M26 14.823l3.093-.889c.848 1.9 2.58 6.542 4.8 9.517 1.734 2.327 3.094 3.248 4.607 3.35 2.764.186 2.135-5.4 2.135-5.4C40 14.324 33.073 8.538 26 8.538s-14 5.786-14.632 12.867c0 0-.629 5.582 2.135 5.4 1.513-.1 2.874-1.023 4.607-3.35 2.216-2.975 3.948-7.621 4.8-9.517z"></path></g></svg>