<svg id="d69cc7a9-c69e-4135-ab9c-4de04ae41843" viewbox="0 0 52 52"><g data-name="73" id="532d0d60-7b44-490c-af43-fb63c2114447"><path d="M26 41.966l4-5.091 4.125 4.25L36 36l3.272 3.182c.14-1.951.228-9.432.228-9.432l3.67-.685c-.055-1.067-3.045-8.69-3.045-8.69l2.025-1.056-6.219-7.8 1.485-.834-5.082-2L26 8.088l-6.334.6-5.082 2 1.484.834-6.218 7.8 2.025 1.056S8.885 28 8.829 29.065l3.671.685s.088 7.481.227 9.432L16 36l1.875 5.125L22 36.875l4 5.091z"></path><path d="M26 12.52c-6.335 0-10.224 5.692-9.746 13.5.418 6.822 4.385 11.624 9.746 11.624 5.36 0 9.328-4.8 9.746-11.624.478-7.808-3.411-13.5-9.746-13.5z" fill="#fff" stroke="#bfbfbf" stroke-width="2.228"></path><path d="M15.883 27.301l5.242-8.801.048 6.388 9.452-7.763 4.656 9.434 1.763-6.126-3.619-8.725-8.168-2.784-6.776 1.671-4.176 5.939-.65 8.354 2.228 2.413z"></path></g></svg>