<svg id="4553a17a-556b-4cf9-84dc-8ff2553ece5c" viewbox="0 0 52 52"><g data-name="16" id="21c787fb-cb16-4795-9161-3364ef60106a"><path d="M39.223 21.268A13.508 13.508 0 0 0 26 8.46a13.507 13.507 0 0 0-13.224 12.808s-1.587 9.331.475 15.83c2.312 7.293 6.641 8.361 12.748 8.361s10.438-1.068 12.749-8.359c2.062-6.5.475-15.832.475-15.832z"></path><path d="M26 11.323c-7.038 0-11.359 6.325-10.828 15.005.464 7.58 4.873 12.917 10.828 12.917 5.955 0 10.364-5.337 10.828-12.917.531-8.68-3.79-15.005-10.828-15.005z" fill="#fff" stroke="#bfbfbf" stroke-width="2.475"></path><path d="M36.673 15.458l-5.8-5.527-9.515-.231-6.27 5.759L12.9 26.131s5.215-3.825 7.536-8.156c0 0-.79 2.573-.7 2.552a8.068 8.068 0 0 0 4.564-2.939s-.078.7-.155 2.321c0 0 1.548.141 4.176-1.393a9.468 9.468 0 0 0 2.785-2.4c1.957 4.328 8 10.012 8 10.012z"></path></g></svg>