<svg id="871e9e3a-7469-427b-ae38-6f70a260bbe3" viewbox="0 0 52 52"><g data-name="12" id="c3c7836f-57ef-4afb-8acc-9fc4992256af"><path d="M39.52 21.126a13.561 13.561 0 0 0-27.04 0s-1.127 9.31 2.253 16.069C17.415 42.559 21.137 45.6 26 45.6s8.584-3.043 11.266-8.407c3.381-6.757 2.254-16.067 2.254-16.067z"></path><path d="M26 11.338c-7.039 0-11.36 6.324-10.829 15.005.464 7.579 4.873 12.916 10.829 12.916s10.364-5.337 10.828-12.916c.532-8.681-3.79-15.005-10.828-15.005z" fill="#fff" stroke="#bfbfbf" stroke-width="2.475"></path><path d="M13.132 27.886s12.248-2.7 18.436-12.371a61.225 61.225 0 0 0 2.707 6.651c2.368 4.6 5.185 5.72 5.185 5.72l-3.329-14.3L27 9.018l-7.579 1.856-5.934 7.826z"></path></g></svg>