<svg id="9fa6fbe2-b390-45f7-9391-5470100f0aa1" viewbox="0 0 52 52"><g data-name="2" id="438cca29-4e44-42f6-af51-d52317b5b849"><path d="M38.38 28.184a4.937 4.937 0 1 0 4.937 4.937 4.936 4.936 0 0 0-4.937-4.937zm0 0a4.937 4.937 0 1 0 4.937 4.937 4.936 4.936 0 0 0-4.937-4.937"></path><path d="M26.147 11.263c-7.039 0-11.36 6.324-10.829 15.005.465 7.58 4.873 12.916 10.829 12.916 5.955 0 10.364-5.336 10.828-12.916.531-8.681-3.79-15.005-10.828-15.005z" fill="#fff" stroke="#bfbfbf" stroke-width="2.475"></path><path d="M38.816 28.184c2.757.267 1.639-6.17 1.639-6.17C39.108 14.876 33.22 9.09 26.146 9.09s-12.962 5.786-14.309 12.924c0 0-1.118 6.437 1.639 6.17 1.29-.124 7.445-8.539 8.958-11.919l3.712.89 3.712-.89c1.513 3.38 7.668 11.795 8.958 11.919z"></path></g></svg>