<svg id="59ba1660-5c8e-46b9-8f9d-eb95e3e3aeef" viewbox="0 0 52 52"><g data-name="47" id="65ae059d-231d-40b4-82f6-339ddacdebb0"><path d="M26 11.149c-7.038 0-11.359 6.324-10.828 15.005C15.636 33.733 20.045 39.07 26 39.07c5.955 0 10.364-5.337 10.828-12.916.532-8.681-3.789-15.005-10.828-15.005z" fill="#fff" stroke="#bfbfbf" stroke-width="2.475"></path><path d="M26 16.177l2.244-2.784 2.707 3.557 1.392-3.094 2.32 4.254.929-1.16c1.082 3.558.928 12.529.928 12.529h2.289V21.5a12.809 12.809 0 1 0-25.617 0v7.98h2.29s-.156-8.971.927-12.529l.929 1.16 2.32-4.254 1.392 3.093 2.707-3.557z"></path></g></svg>