<svg id="3c797ae8-bc3d-416c-ae12-402767f369b3" viewbox="0 0 52 52"><g data-name="116" id="d595c9aa-8acd-480d-86ef-0d23d287189c"><path d="M26 38.6c8.121 0 11.365-.011 14.149-3.724 2.446-3.261 1.37-7.878.006-14.85C38.762 12.912 33.072 7.962 26 7.962s-12.762 4.95-14.154 12.065C10.481 27 9.4 31.616 11.851 34.877 14.635 38.59 17.878 38.6 26 38.6z"></path><path d="M26 11.056c-7.038 0-11.359 6.323-10.828 15C15.635 33.64 20.044 38.977 26 38.977c5.955 0 10.364-5.337 10.828-12.917.531-8.681-3.79-15.004-10.828-15.004z" fill="#fff" stroke="#bfbfbf" stroke-width="2.475"></path><path d="M26 8.271l9.823 4.176 3.559 8.663-.233 11.756-1.779.851s-2.069-4.9-3.245-8.655c-1.312-4.187-3.687-12.812-3.687-12.812A43.453 43.453 0 0 0 20 23.25a55.391 55.391 0 0 0-5.37 10.467l-1.779-.851-.233-11.756 3.559-8.663z"></path></g></svg>