<svg id="8c5a5e1e-b63b-4611-b50c-4aeb17b06862" viewbox="0 0 52 52"><g data-name="68" id="ed30210e-1d1d-497f-9181-6976610ad062"><path d="M26 11.158c-7.039 0-11.36 6.324-10.829 15.005.465 7.58 4.873 12.916 10.829 12.916 5.955 0 10.364-5.336 10.828-12.916.531-8.681-3.79-15.005-10.828-15.005z" fill="#fff" stroke="#bfbfbf" stroke-width="2.475"></path><path d="M40.308 18.815l-2.552-3.248-1.005-4.022-3.327-.7-2.324-2.78-3.094.309L26 7.291l-2.012 1.083-3.094-.309-2.32 2.784-3.326.7-1.006 4.022-2.552 3.244.928 3.635-.077 3.559 1.779 2.707 2.243-8.973 2.629-2.629a21.1 21.1 0 0 0 6.808.851 21.089 21.089 0 0 0 6.807-.851l2.63 2.629 2.242 8.973 1.78-2.707-.079-3.559z"></path></g></svg>