<svg id="00b8f766-17af-4348-956c-ad77af9e37ed" viewbox="0 0 52 52"><g data-name="77" id="bc7e6871-64a5-4d7a-b214-7e8af342b324"><path d="M28 9.25a5.264 5.264 0 0 1 5.495-1.577 11.811 11.811 0 0 1 7.519 7.792c1.222 4.248-.568 10.055-.568 10.055l-4.577-7.02z"></path><path d="M29.214 7.011h2.321v3.228h-2.321z" fill="#bfbfbf" transform="rotate(-68.588 30.374 8.625)"></path><path d="M39.608 21.229c-1.1-8.184-6.447-12.866-13.52-12.866s-12.422 4.682-13.52 12.866S12.535 36 15.062 38.984a15.5 15.5 0 0 0 11.026 4.894 15.5 15.5 0 0 0 11.025-4.894c2.529-2.984 3.593-9.569 2.495-17.755z"></path><path d="M26.088 11.162c-7.039 0-11.359 6.323-10.828 15 .464 7.58 4.872 12.917 10.828 12.917 5.956 0 10.364-5.337 10.828-12.917.532-8.677-3.789-15-10.828-15z" fill="#fff" stroke="#bfbfbf" stroke-width="2.475"></path><path d="M26.088 8.95l-6.42 1.593-6.093 7.9-.489 5.4.24 6.272.928 3.094 1.872-12.221c.317-.051 4.856-4.794 4.856-4.794M26.088 8.95l6.42 1.593 6.092 7.9.49 5.4-.24 6.272-.928 3.094-1.871-12.225c-.319-.051-4.176-6.734-4.176-6.734"></path><path d="M18.431 14.565L14.275 24.7s6.313-1.234 10.1-3.322c5.3-2.922 9.125-5.625 10.875-8l-6.765-3.995-.928-1.006L23.381 10z"></path></g></svg>