<svg id="b3be65b1-137e-4228-957e-55ba79bb11dd" viewbox="0 0 52 52"><g data-name="78" id="8b153c61-b507-4bc9-ab2a-df70c3b2a902"><path d="M15.784 14.673s-3.846-1.735-7.221 2.452c-2.352 2.918-2.438 7.75-1.75 11.625a34.977 34.977 0 0 0 3.562 10.75 68.952 68.952 0 0 1 1.688-10.875c1-3.437 3.3-5.244 5.937-7zM36.216 14.673s3.847-1.735 7.222 2.452c2.351 2.918 2.437 7.75 1.75 11.625a34.992 34.992 0 0 1-3.563 10.75 69.029 69.029 0 0 0-1.687-10.875c-1-3.437-3.3-5.244-5.938-7z"></path><path d="M26 11.194c-7.039 0-11.36 6.324-10.829 15.005.464 7.579 4.873 12.916 10.829 12.916 5.955 0 10.363-5.337 10.828-12.916.532-8.681-3.789-15.005-10.828-15.005z" fill="#fff" stroke="#bfbfbf" stroke-width="2.475"></path><path d="M13.269 27.95s12.114-7.071 18.014-12.179l7.259 12.179a14.338 14.338 0 0 0 .49-3.726v-2.378a13.473 13.473 0 0 0-2.381-7.669 12.658 12.658 0 0 0-21.3 0 13.48 13.48 0 0 0-2.38 7.669v2.378a23.218 23.218 0 0 0 .298 3.726z"></path></g></svg>