<svg id="9501895e-969c-4eb1-a6d9-dcc849600e6a" viewbox="0 0 52 52"><g data-name="13" id="908e76f2-3fd6-4fb1-b5c8-61ce3bb95396"><path d="M39.7 21.479c0-7.073-6.625-12.808-13.7-12.808s-13.7 5.735-13.7 12.808c0 0-.652 8.005 2.017 14.054a15.282 15.282 0 0 0 5.03 6.493l2.784-2.76L26 44.131l3.868-4.865 2.783 2.76a15.274 15.274 0 0 0 5.03-6.493C40.35 29.484 39.7 21.479 39.7 21.479z"></path><path d="M26 11.268c-7.039 0-11.36 6.324-10.829 15 .464 7.58 4.873 12.917 10.829 12.917s10.364-5.337 10.828-12.917c.532-8.676-3.79-15-10.828-15z" fill="#fff" stroke="#bfbfbf" stroke-width="2.475"></path><path d="M34.361 11.775L26 9.334l-8.362 2.441-4.921 8.34.3 8.07c3.38-2.254 5.04-8.01 5.04-8.01l2.643 1.838 2.652-2.613L26 22.013l2.647-2.613 2.653 2.613 2.65-1.838s1.66 5.756 5.04 8.01l.3-8.07z"></path></g></svg>