<svg id="ad108cdc-a121-4719-a44a-e1f4db2ed518" viewbox="0 0 52 52"><g data-name="32" id="b68114ef-7b09-46dd-95fc-a904fd6110b0"><path d="M36.886 31.747l-3.832 11.918-3.135-4.625L26 45.356l-3.92-6.316-3.135 4.625-3.832-11.918"></path><path d="M26 11.328c-7.039 0-11.36 6.323-10.829 15.005.464 7.579 4.873 12.916 10.829 12.916s10.364-5.337 10.828-12.916c.532-8.682-3.79-15.005-10.828-15.005z" fill="#fff" stroke="#bfbfbf" stroke-width="2.475"></path><path d="M39.608 20.717C39.608 13.644 33.073 8.65 26 8.65s-13.609 4.994-13.609 12.067c0 0-.623 6.76 1.867 9.873l.445-8.8 1.068-3.736 1.334 5.246 2.4-7.648 1.779 7.737 2.316-8.275L26 22.94l2.4-7.826 2.313 8.271 1.779-7.737L34.9 23.3l1.334-5.247 1.066 3.732.445 8.805c2.486-3.113 1.863-9.873 1.863-9.873z"></path></g></svg>