<svg id="f4c7fe7c-d458-456e-b275-83c24e677b71" viewbox="0 0 52 52"><g data-name="79" id="9c80c0be-e96f-46e1-bf6f-264ee58a8872"><path d="M13.083 33.583l6.584-6.667H26v-9.5H13.5l-.417 16.167zM38.917 33.583l-6.583-6.667H26v-9.5h12.501l.416 16.167z"></path><path d="M26 11.194c-7.039 0-11.36 6.324-10.829 15.005.464 7.579 4.873 12.916 10.829 12.916s10.364-5.337 10.828-12.916c.532-8.681-3.79-15.005-10.828-15.005z" fill="#fff" stroke="#bfbfbf" stroke-width="2.475"></path><path d="M26 6.5c.063-.062 3.917 1 3.917 1l5.333-.918 2.5 3.917 4.417 2.25L41.334 18l1.584 3.417-3.584 4.416c0 1-.416 5.917-.416 5.917l-3.1-8.467c-.1 0-1.231-4.533-1.231-4.533v4.306s-5.7-.473-8.586-.473c-2.885 0-8.586.473-8.586.473V18.75s-1.133 4.538-1.232 4.533l-3.1 8.467s-.416-4.917-.416-5.917l-3.584-4.416L10.667 18l-.834-5.25 4.417-2.25 2.5-3.917 5.333.918S25.937 6.438 26 6.5z"></path></g></svg>