<svg id="512c7b0f-cf57-4a18-875b-b9328f3b3135" viewbox="0 0 52 52"><g data-name="42" id="4e237da4-892c-4c60-834b-a5450abee34c"><path d="M26 32.755l-10.596-1.083.619 8.508 1.919 1.469 2.654-.707 1.691-6.253.739 7.115 2.974.928 2.973-.928.739-7.115 1.691 6.253 2.655.707 1.919-1.469.618-8.508L26 32.755"></path><path d="M26 11.1c-7.039 0-11.36 6.323-10.829 15 .464 7.583 4.873 12.92 10.829 12.92s10.364-5.337 10.828-12.917C37.36 17.422 33.038 11.1 26 11.1z" fill="#fff" stroke="#bfbfbf" stroke-width="2.475"></path><path d="M26 12.259c-.827.215-3.325.508-3.325.508s-.667 2.209-1.7 5.679a41.157 41.157 0 0 0-1.549 6.654l-2.011 1.16v6.884l-3.326 5.336L11 37.4a68.642 68.642 0 0 1 .773-8.586l-2.015-2.789c.7-13.3 9.2-19.18 9.2-19.18L20.122 7l.928-.309 2.244.7.309-.31 2.4.7 2.4-.7.309.31 2.243-.7.922.309 1.16-.154s8.508 5.878 9.2 19.18l-2.01 2.785A68.838 68.838 0 0 1 41 37.4l-3.09 1.078-3.326-5.336v-6.884L32.573 25.1a41.157 41.157 0 0 0-1.547-6.652c-1.034-3.47-1.7-5.679-1.7-5.679s-2.5-.293-3.325-.508z"></path></g></svg>