<svg id="ea2c852c-37ce-48bd-a248-233d78a78503" viewbox="0 0 52 52"><g data-name="17" id="53d56295-60c9-47fc-89cb-ba5315451a95"><path d="M26 45.821l3.094-3.582 2.4 2.517a13.568 13.568 0 0 0 4.406-4.331 14.027 14.027 0 0 0 1.934-5.025l.976 1.268s1.448-1.364 2.04-6.048a28.781 28.781 0 0 0-.559-9.31C40.291 14.234 33.073 8.5 26 8.5s-14.291 5.734-14.291 12.808a28.846 28.846 0 0 0-.559 9.31c.594 4.684 2.041 6.048 2.041 6.048l.975-1.268a14.05 14.05 0 0 0 1.934 5.027 13.587 13.587 0 0 0 4.409 4.331l2.4-2.517z"></path><path d="M26 11.343c-7.038 0-11.359 6.325-10.828 15.005.464 7.58 4.873 12.917 10.828 12.917 5.955 0 10.364-5.337 10.828-12.917.532-8.68-3.789-15.005-10.828-15.005z" fill="#fff" stroke="#bfbfbf" stroke-width="2.475"></path><path d="M26 14.489a8.981 8.981 0 0 0 3.791 4.28 14.92 14.92 0 0 0 5.4 1.649s.865 7.4-.218 10.261c0 0 3.954-.952 5.022-2.433l-.771-8.658-4.15-7.709L26 9.686l-9.072 2.193-4.152 7.709-.77 8.658c1.067 1.481 5.022 2.433 5.022 2.433-1.083-2.862-.218-10.261-.218-10.261a14.915 14.915 0 0 0 5.4-1.649 8.975 8.975 0 0 0 3.79-4.28z"></path></g></svg>