<svg id="55532327-ae04-4b24-83e8-5dae75f9472b" viewbox="0 0 52 52"><g data-name="6" id="ff8980ef-ed9b-46d1-ad43-efaccf8d9420"><path d="M26 8.484c7.073 0 12.5 5.811 13.921 12.809 1.449 7.123 2.563 14.734-6.627 23.925l-1.074-2.293-1.889 1.669-.387-2.321L26 45.692l-3.945-3.419-.387 2.321-1.889-1.669-1.073 2.293c-9.191-9.191-8.077-16.7-6.629-23.827C13.5 14.393 18.926 8.484 26 8.484z"></path><path d="M26 11.336c-7.039 0-11.36 6.324-10.829 15C15.635 33.92 20.044 39.257 26 39.257S36.364 33.92 36.828 26.34c.532-8.68-3.79-15.004-10.828-15.004z" fill="#fff" stroke="#bfbfbf" stroke-width="2.475"></path><path d="M26 9.325l5.956.928 3.037 2.784 4.928 10.055-1.778 12.22-1.933-.928c1.778-10.286-.62-15.7-.62-15.7l-4.027-2.4c-1.611-.108-3.515-.172-5.563-.172s-3.954.064-5.563.172l-4.029 2.4s-2.4 5.414-.618 15.7l-1.934.928-1.778-12.22 4.928-10.055 3.038-2.784z"></path></g></svg>