<svg id="d0298e83-dc79-45c1-a050-322a517f08d5" viewbox="0 0 52 52"><g data-name="48" id="f76441f0-b6f9-4011-ae56-86829a5c3fb4"><path d="M26 11.216c-7.039 0-11.36 6.323-10.829 15.005C15.636 33.8 20.044 39.137 26 39.137S36.364 33.8 36.828 26.221c.533-8.682-3.789-15.005-10.828-15.005z" fill="#fff" stroke="#bfbfbf" stroke-width="2.475"></path><path d="M38.143 27.3a37.176 37.176 0 0 0 0-8.277A11.963 11.963 0 0 0 26 8.757a11.963 11.963 0 0 0-12.144 10.27 34.582 34.582 0 0 0 .078 8.2 28.35 28.35 0 0 0 9.745-5.569 22.6 22.6 0 0 0 5.182-6.5s4.952 8.82 9.282 12.142z"></path></g></svg>