<svg id="ece14350-dc4f-44c7-b541-271f00452d76" viewbox="0 0 52 52"><g data-name="124" id="b519d708-ab19-4662-85fb-67e93f1223a2"><path d="M26 39.815c.336 0 7.125-2.815 7.125-2.815l1 3 2.5-3.125.919 2.855a13.81 13.81 0 0 0 3.482-5.309c1.752-5.751.425-10.266-.793-13.922C38.376 14.931 33.075 8.434 26 8.434S13.626 14.931 11.769 20.5c-1.218 3.656-2.546 8.171-.794 13.922a13.807 13.807 0 0 0 3.483 5.309l.918-2.855 2.5 3.124 1-3s6.79 2.815 7.124 2.815z"></path><path d="M26 11.09c-7.039 0-11.359 6.324-10.828 15.005.464 7.579 4.873 12.916 10.828 12.916 5.957 0 10.366-5.337 10.829-12.916C37.361 17.414 33.04 11.09 26 11.09z" fill="#fff" stroke="#bfbfbf" stroke-width="2.475"></path><path d="M40.168 24.25l-2.5-8-4.093-4.624L26 8.77l-7.574 2.856-4.092 4.624-2.5 8h28.334z"></path></g></svg>