<svg id="5903976d-5c1e-44d6-890d-3e65476397c3" viewbox="0 0 52 52"><g data-name="101" id="75c2b50a-e5a1-4173-927f-0eb75d2e1391"><path d="M38.606 28.893l2.011 7.121-2.784 4.228 1.16 4.377-3.712-3.857-2.166 4.451-3.094-4.006L26 45.065l-4.024-3.858-3.093 4.006-2.165-4.451-3.712 3.857 1.16-4.377-2.785-4.228 2.011-7.121"></path><path d="M26 11.336c-7.039 0-11.361 6.324-10.829 15C15.635 33.92 20.043 39.257 26 39.257c5.955 0 10.364-5.337 10.828-12.917.531-8.68-3.79-15.004-10.828-15.004z" fill="#fff" stroke="#bfbfbf" stroke-width="2.475"></path><path d="M39.535 26.5l.277-3.7v-1.577c0-7.075-6.74-12.267-13.812-12.267s-13.815 5.192-13.815 12.267v1.571l.279 3.7-.387 2.862 4.409 5.259 1.856-6.343-1.393-7.656 6.729-7.657L26 14.738l2.32-1.778 6.729 7.657-1.392 7.656 1.856 6.343 4.409-5.259z"></path><path d="M15.833 24.916S21.667 21.25 24 19.25l-2.5 5.416A29.933 29.933 0 0 0 32.083 17l-.166-5.334-6-1.916-8.667 4.583z"></path></g></svg>