<svg id="c93f3da3-ed7e-4973-b5e3-adfeb4f65103" viewbox="0 0 52 52"><g data-name="88" id="42104989-ea65-4405-b0ba-8f644bc12b74"><path d="M26 11.175c-7.038 0-11.359 6.323-10.828 15C15.635 33.759 20.044 39.1 26 39.1c5.955 0 10.364-5.337 10.828-12.917C37.359 17.5 33.037 11.175 26 11.175z" fill="#fff" stroke="#bfbfbf" stroke-width="2.475"></path><path d="M15.171 15.016c-2.556 5.781-1.562 11.311-1.237 16.6h1.339A54.8 54.8 0 0 1 16.1 18.3c.582-2.185 1.454-5.4 4.5-6.188 2.964-.766 2.718 1.8 5.4 1.8V9.318c-3.23 0-8.87 1.264-10.829 5.698zM36.829 15.016c-1.96-4.434-7.6-5.7-10.829-5.7v4.591c2.681 0 2.435-2.566 5.4-1.8 3.047.788 3.919 4 4.5 6.188a54.8 54.8 0 0 1 .826 13.322h1.34c.324-5.29 1.317-10.817-1.237-16.601z"></path></g></svg>