<svg id="9d64d135-cdfc-4037-90d8-0a6891f86209" viewbox="0 0 52 52"><g data-name="84" id="d0882069-270f-4021-8c4d-80f313c41209"><path d="M37.771 20.257s-5.57 5-2.4 8.3A34.189 34.189 0 0 1 41.7 38.2s4.754-7.705 3.085-12.9c-1.4-4.35-7.014-5.043-7.014-5.043z"></path><path d="M26 11.278c-7.039 0-11.36 6.325-10.829 15.005C15.636 33.862 20.044 39.2 26 39.2c5.955 0 10.364-5.337 10.828-12.916C37.36 17.6 33.039 11.278 26 11.278z" fill="#fff" stroke="#bfbfbf" stroke-width="2.475"></path><path d="M26 8.819c5.878 0 12.565 5.415 13.613 12.282.7 4.563-2.53 20.083-3.549 23.1 0 0-1.7-17.221-2.275-19.541l-4.464-8.2a68.6 68.6 0 0 1-10.75 9.591l1.8-5.063a24.164 24.164 0 0 0-2.164 3.671c-.574 2.32-2.275 19.541-2.275 19.541-1.019-3.016-4.245-18.536-3.549-23.1C13.435 14.234 20.122 8.819 26 8.819"></path></g></svg>