<svg id="6d867be7-1b45-4cc9-a2cd-da03eaa27662" viewbox="0 0 52 52"><g data-name="108" id="f2312bf7-6867-434c-ab12-979f8e731eed"><path d="M40.5 20.373C38.27 13.1 33.073 8.84 26 8.84S13.73 13.1 11.5 20.373c-1.69 5.516-1.246 13.164 2.134 20.369A27.553 27.553 0 0 1 26 37.718a27.548 27.548 0 0 1 12.364 3.024c3.38-7.205 3.825-14.853 2.136-20.369z"></path><path d="M26 11.205c-7.039 0-11.36 6.324-10.829 15 .464 7.58 4.873 12.916 10.829 12.916 5.955 0 10.363-5.336 10.828-12.916.532-8.676-3.789-15-10.828-15z" fill="#fff" stroke="#bfbfbf" stroke-width="2.475"></path><path d="M26 13.668l3.333-1.084s5.834 9.083 9.917 12.667l-1.417-7.583-4.666-6.5L26 9.5l-7.167 1.665-4.666 6.5-1.417 7.586c4.083-3.584 9.917-12.667 9.917-12.667z"></path></g></svg>