<svg id="01247373-92cd-42fd-8d3a-e97ad56b708e" viewbox="0 0 52 52"><g data-name="126" id="0d858280-1b0e-49a1-a75c-a6bc7a9952ec"><path d="M15.784 14.673s-3.846-1.735-7.221 2.452c-2.352 2.918-2.437 7.75-1.75 11.625a34.96 34.96 0 0 0 3.563 10.75 69.029 69.029 0 0 1 1.687-10.875c1-3.437 3.3-5.244 5.938-7zM36.217 14.673s3.846-1.735 7.221 2.452c2.352 2.918 2.438 7.75 1.75 11.625a34.977 34.977 0 0 1-3.562 10.75 69.078 69.078 0 0 0-1.688-10.875c-1-3.437-3.3-5.244-5.937-7z"></path><path d="M26 11.194c-7.039 0-11.36 6.324-10.829 15.005.465 7.579 4.873 12.916 10.829 12.916s10.364-5.337 10.828-12.916c.533-8.681-3.789-15.005-10.828-15.005z" fill="#fff" stroke="#bfbfbf" stroke-width="2.475"></path><path d="M33.5 17.083l5.23 10.867a23.218 23.218 0 0 0 .3-3.726v-2.378a13.48 13.48 0 0 0-2.38-7.669 12.659 12.659 0 0 0-21.3 0 13.48 13.48 0 0 0-2.38 7.669v2.378a23.218 23.218 0 0 0 .3 3.726l5.23-10.867"></path><path d="M36.001 19.5l-2 4.5-2-4.5-2 4.5-2-4.5-2 4.5-2-4.5-2 4.5-2-4.5-2 4.5-2-4.5L26.083 9l9.918 10.5z"></path></g></svg>