<svg id="90ed7ee6-cb96-46a1-8c45-e0013757dc85" viewbox="0 0 52 52"><g data-name="87" id="4615a660-7dc4-4a7e-aadc-84c29130c639"><path d="M13.4 17.637l-4.949 8.4 3.049 1.338.625 6.875 1.5 5.5 3.125-1.25 1.301 2.387L26 34.75 13.4 17.637zM38.6 17.637l4.949 8.4-3.048 1.338-.625 6.875-1.5 5.5-3.125-1.25-1.302 2.387L26 34.75l12.6-17.113z"></path><path d="M26 11.113c-7.039 0-11.36 6.325-10.829 15.005C15.636 33.7 20.044 39.034 26 39.034s10.364-5.337 10.828-12.916c.532-8.68-3.789-15.005-10.828-15.005z" fill="#fff" stroke="#bfbfbf" stroke-width="2.475"></path><path d="M26 7.029c5.878 0 13.184 6.035 14.232 12.9.7 4.562-.773 7.888-2.011 10.9 0 0-1.089-4.409-1.785-6.73 0 0-3.086-1.969-4.137-4.1a15.979 15.979 0 0 1-1.349-4.471c-3.017 6.806-15.387 8.569-15.387 8.569-.7 2.321-1.784 6.73-1.784 6.73-1.238-3.017-2.707-6.343-2.011-10.9 1.047-6.867 8.353-12.9 14.232-12.9"></path></g></svg>