<svg id="61388026-71bd-4a24-9bc4-dc410a21d627" viewbox="0 0 52 52"><g data-name="82" id="4d042130-2e98-4581-82ed-b47e87874586"><path d="M26 44.75c5.25 0 8.758-4.146 10.25-7.125a10.705 10.705 0 0 0 1.268-4.97l3.857-.03s-1.645-3.016-2.75-11.273S33.134 8.377 26 8.377c-7.133 0-11.516 4.722-12.625 12.975s-2.75 11.273-2.75 11.273l3.857.03a10.69 10.69 0 0 0 1.268 4.97c1.491 2.979 5 7.125 10.25 7.125"></path><path d="M26 11.11c-7.039 0-11.36 6.324-10.829 15.005.464 7.579 4.873 12.916 10.829 12.916 5.955 0 10.364-5.337 10.828-12.916.531-8.681-3.79-15.005-10.828-15.005z" fill="#fff" stroke="#bfbfbf" stroke-width="2.475"></path><path d="M41.249 31a37.74 37.74 0 0 1-2.137-7.014L37.5 17.5l-5.025-6.926L26 9.25l-6.475 1.324L14.5 17.5l-1.612 6.486A37.61 37.61 0 0 1 10.749 31c-1.182 2.761-2.5 6.125-.875 9.75C11.329 44 17.124 46 17.124 46l2.75-5.75a57.464 57.464 0 0 1-3.25-5.5c-.744-3.834-.336-12.625 3-18 2.25-3.625 4.5-3.875 6.375-4.023 1.875.148 4.125.4 6.375 4.023 3.336 5.375 3.744 14.166 3 18a57.464 57.464 0 0 1-3.25 5.5l2.75 5.75s5.795-2 7.25-5.25c1.625-3.625.307-6.989-.875-9.75z"></path></g></svg>