<svg id="ac2d625f-566c-4eb6-8578-360646c916e2" viewbox="0 0 52 52"><g data-name="69" id="d5688b00-a8e7-493a-b174-95a5abfdc5c8"><path d="M39.743 17.772c-1.759-5.566-6.079-9.9-13.744-9.9s-11.984 4.337-13.744 9.9C10.876 22.131 6.892 35.623 26 36.564c19.106-.941 15.121-14.433 13.743-18.792z"></path><path d="M26 11.118c-7.039 0-11.36 6.323-10.829 15C15.635 33.7 20.043 39.039 26 39.039c5.955 0 10.364-5.337 10.828-12.917.531-8.681-3.79-15.004-10.828-15.004z" fill="#fff" stroke="#bfbfbf" stroke-width="2.475"></path><path d="M29.557 17.228c4.718 3.093 8.585 11.06 8.585 11.06l.232-6.42-1.314-5.259-2.553-3.79-3.557-2.552L26 9.416l-4.95.851-3.558 2.552-2.552 3.79-1.315 5.259.232 6.42s3.867-7.967 8.585-11.06l-.619 3.016 7.58-2.938"></path></g></svg>