<svg id="059b2dea-4a85-41f0-9bfe-d0c6c0dc2f30" viewbox="0 0 52 52"><g data-name="11" id="bd4c9161-2220-4456-9a86-156bbc6f28c3"><path d="M37.742 30.627l2.431 1.127-1.009-10.081A13.356 13.356 0 0 0 26 8.865a13.356 13.356 0 0 0-13.163 12.808l-1.009 10.081 2.432-1.127s-1.187 7.413-2.729 8.773l7 .119L26 39.106l7.473.416 7-.119c-1.545-1.363-2.731-8.776-2.731-8.776z"></path><path d="M26 11.148c-7.038 0-11.359 6.324-10.828 15.005.464 7.579 4.873 12.916 10.828 12.916 5.955 0 10.364-5.337 10.828-12.916.532-8.681-3.789-15.005-10.828-15.005z" fill="#fff" stroke="#bfbfbf" stroke-width="2.475"></path><path d="M37.623 17.938l-3.966-6.171L26 9.19l-7.425 2.422-4.2 6.326L12.836 26l.712 4.981s3.558-8.868 4.15-11.834l1.72 1.957 1.72-2.49 2.254 2.49L26 16.481l2.61 4.625 2.254-2.49 1.719 2.49 1.717-1.957c.594 2.966 4.151 11.834 4.151 11.834L39.164 26z"></path></g></svg>