<svg id="559542e0-b470-4ad7-9b47-1b40a58af250" viewbox="0 0 52 52"><g data-name="50" id="11632068-efc7-4344-a008-0a3c075fc2af"><path d="M37.679 23.027l-1.624 17.558-5.491-1.16L26 41.049l-4.564-1.624-5.492 1.16-1.624-17.558"></path><path d="M26 11.116c-7.039 0-11.36 6.324-10.829 15.005C15.635 33.7 20.044 39.038 26 39.038s10.364-5.337 10.828-12.917C37.36 17.44 33.038 11.116 26 11.116z" fill="#fff" stroke="#bfbfbf" stroke-width="2.475"></path><path d="M26 8.734c7.249 0 12.127 4.625 13.078 11.355l2.932 3.789A10.265 10.265 0 0 1 32.9 22.8a24.175 24.175 0 0 1-6.9-7.58 24.17 24.17 0 0 1-6.9 7.58 10.265 10.265 0 0 1-9.115 1.082l2.932-3.789C13.873 13.359 18.751 8.734 26 8.734z"></path></g></svg>