<svg id="158c90db-9e21-4ebe-a901-4bc9a64c3674" viewbox="0 0 52 52"><g data-name="44" id="cd115961-0257-4163-885b-1c65c88f2af7"><path d="M26 11.161c-7.039 0-11.36 6.324-10.829 15.005.464 7.58 4.873 12.917 10.829 12.917s10.364-5.337 10.829-12.917c.535-8.681-3.786-15.005-10.829-15.005z" fill="#fff" stroke="#bfbfbf" stroke-width="2.475"></path><path d="M26 8.625c7.416 0 13.381 5.565 13.381 12.8a28.828 28.828 0 0 1-.812 4.429 26.165 26.165 0 0 1-12.484-12.735H26a26.169 26.169 0 0 1-12.49 12.737 28.922 28.922 0 0 1-.811-4.429c0-7.237 5.965-12.8 13.381-12.8z"></path></g></svg>