<svg id="2373df3e-88aa-44d6-ad9a-9ff00ca53505" viewbox="0 0 52 52"><g data-name="97" id="2fdc551b-e49d-4775-b2a4-c5ce6285c1fe"><path d="M31.585 32.016s-3.99 4.009-2.4 8.294a7.655 7.655 0 0 0 7.012 5.044 7.655 7.655 0 0 0 2.4-8.3c-1.397-4.345-7.012-5.038-7.012-5.038z"></path><path d="M26 11.318c-7.039 0-11.36 6.325-10.829 15C15.635 33.9 20.044 39.239 26 39.239s10.365-5.337 10.828-12.917C37.36 17.643 33.039 11.318 26 11.318z" fill="#fff" stroke="#bfbfbf" stroke-width="2.475"></path><path d="M26 14.938c2.088 0 5.164-.134 5.164-.134l4.421 2.74.832 8.79 2.113.026c.01-.246.7-7.425-2.939-12.219A12.238 12.238 0 0 0 26 9.683a12.237 12.237 0 0 0-9.591 4.458c-3.636 4.794-2.949 11.973-2.94 12.219l2.114-.026.831-8.79 4.421-2.74s3.076.134 5.165.134z"></path></g></svg>