<svg id="33ee9f3c-3149-4877-862f-f827deb9cd5b" viewbox="0 0 52 52"><g data-name="27" id="71e340fd-57f2-4932-96a4-fc0758d5bfdd"><path d="M39.253 23.11s.093 6.909 1.422 10.407c1.692 4.447.712 8.894-2.578 11.651l-1.957-4.18a8.533 8.533 0 0 1-3.825 3.291 15.617 15.617 0 0 1-12.631 0 8.533 8.533 0 0 1-3.825-3.291l-1.959 4.18c-3.291-2.757-4.27-7.2-2.58-11.651 1.329-3.5 1.423-10.407 1.423-10.407z"></path><path d="M26 11.309c-7.039 0-11.36 6.325-10.829 15.005.464 7.58 4.873 12.916 10.829 12.916s10.364-5.336 10.828-12.916c.532-8.68-3.79-15.005-10.828-15.005z" fill="#fff" stroke="#bfbfbf" stroke-width="2.475"></path><path d="M39.431 19.138A13.225 13.225 0 0 0 26 8.02a13.225 13.225 0 0 0-13.432 11.118c-.978 5.515-1.512 8.9-4.18 10.495 0 0 7.294.712 10.762-5.959 2.277-4.378 3.113-6.4 3.113-6.4L26 15.047l3.736 2.224s.836 2.025 3.113 6.4c3.468 6.671 10.762 5.959 10.762 5.959-2.668-1.597-3.201-4.977-4.18-10.492z"></path></g></svg>