<svg id="ee1eaf8f-3a51-4ba4-a248-99e7f66499e7" viewbox="0 0 52 52"><g data-name="99" id="38551ffe-9207-47b5-a6e0-5d901b7502bb"><path d="M39.7 21.479c0-7.073-6.625-12.807-13.7-12.807s-13.7 5.734-13.7 12.807c0 0-.652 8.005 2.017 14.054a15.272 15.272 0 0 0 5.03 6.492l2.784-2.759L26 44.131l3.868-4.865 2.783 2.759a15.264 15.264 0 0 0 5.03-6.492c2.668-6.049 2.019-14.054 2.019-14.054z"></path><path d="M26 11.268c-7.039 0-11.36 6.324-10.829 15 .464 7.584 4.873 12.921 10.829 12.921s10.364-5.337 10.828-12.918c.532-8.679-3.79-15.003-10.828-15.003z" fill="#fff" stroke="#bfbfbf" stroke-width="2.475"></path><path d="M25.583 19.25a18.053 18.053 0 0 0 3.584-2.5s8 7.667 9.819 11.435l.3-8.07-4.922-8.34L26 9.334l-8.362 2.441-4.921 8.34.3 8.07c1.819-3.768 9.819-11.435 9.819-11.435l-1.75 4.5a22.579 22.579 0 0 0 4.497-2z"></path></g></svg>