<svg id="47222c8b-8bd8-44ed-8469-02f19fedf082" viewbox="0 0 52 52"><g data-name="23" id="1d8cb05e-5b20-4a41-ba9a-c4776534ef09"><path d="M26 11.282c-7.038 0-11.359 6.324-10.828 15C15.636 33.866 20.045 39.2 26 39.2c5.955 0 10.364-5.337 10.828-12.917.532-8.677-3.789-15.001-10.828-15.001z" fill="#fff" stroke="#bfbfbf" stroke-width="2.475"></path><path d="M26 10.044a10.983 10.983 0 0 1 8.208 3.478c2.811 2.988 4.181 7.548 3.856 12.84l-.1-1.081H37.6c-.359-4.744-4-10.587-4-10.587a39.517 39.517 0 0 1-7.6.687 39.5 39.5 0 0 1-7.6-.687s-3.64 5.843-4 10.587h-.36l-.1 1.081c-.325-5.292 1.045-9.852 3.856-12.84A10.986 10.986 0 0 1 26 10.044z"></path></g></svg>