<svg id="f01b8ca5-05a1-442e-8de1-ffa16b520340" viewbox="0 0 52 52"><g data-name="67" id="dcb8ae14-fb9c-4dff-a5d9-b82b5ccee70a"><path d="M26 11.089c-7.038 0-11.359 6.324-10.828 15.005.464 7.58 4.872 12.917 10.828 12.917 5.956 0 10.364-5.337 10.828-12.917.536-8.681-3.786-15.005-10.828-15.005z" fill="#fff" stroke="#bfbfbf" stroke-width="2.475"></path><path d="M26 7.7c6.6 0 10.906 5.166 12.221 11.2a38.517 38.517 0 0 1 .542 9.9h-1.776s-.7-9.049-4.1-13.845c0 0-1.934 1.47-6.806 1.47H26c-4.872 0-6.806-1.47-6.806-1.47-3.4 4.8-4.1 13.845-4.1 13.845h-1.78a38.517 38.517 0 0 1 .542-9.9c1.315-6.033 5.617-11.2 12.221-11.2z"></path></g></svg>