<svg id="4dbc6379-dec6-4c80-8b50-589d9432ec70" viewbox="0 0 52 52"><g data-name="104" id="4ab9e0bd-a915-4f6a-9b94-9548d22833b6"><path d="M16.927 29.2a13.131 13.131 0 0 0-4.463 7c-1.478 6.4-4.486 7.348-4.486 7.348s5.2 2.823 8.276-.078c2.707-2.553 3.21-8.746 5.878-10.519zM35.073 29.2a13.131 13.131 0 0 1 4.463 7c1.478 6.4 4.486 7.348 4.486 7.348s-5.2 2.823-8.276-.078c-2.707-2.553-3.21-8.746-5.878-10.519z"></path><path d="M13.14 28.23L26 36.27l12.669-8.04a14.477 14.477 0 0 0 .5-3.763v-2.4a13.621 13.621 0 0 0-2.4-7.747 12.79 12.79 0 0 0-21.52 0 13.621 13.621 0 0 0-2.4 7.747v2.4a23.555 23.555 0 0 0 .291 3.763z"></path><path d="M26 11.288c-7.039 0-11.36 6.324-10.829 15.005.464 7.58 4.873 12.916 10.829 12.916 5.955 0 10.363-5.336 10.828-12.916.532-8.681-3.789-15.005-10.828-15.005z" fill="#fff" stroke="#bfbfbf" stroke-width="2.475"></path><path d="M20.664 15.929l-7.333 12.3a14.476 14.476 0 0 1-.494-3.763v-2.4a13.613 13.613 0 0 1 2.4-7.747 12.789 12.789 0 0 1 21.519 0 13.621 13.621 0 0 1 2.4 7.747v2.4a14.477 14.477 0 0 1-.5 3.763l-7.333-12.3"></path><path d="M26.001 13.416l6.916 1.084 1.167 8.583H17.918l1.166-8.583 6.917-1.084z"></path></g></svg>