<svg id="104f54b7-72bd-479e-9104-bba30077c580" viewbox="0 0 52 52"><g data-name="22" id="7d84d045-8a86-46a3-8604-908b140b7a4f"><path d="M26 42.207l3.2-2.5 2.908 2.165 1.7-3.4 2.01 3.481c3.795-3.381 4.038-7.96 3.636-14a141.15 141.15 0 0 0-.649-6.87A12.61 12.61 0 0 0 26 8.505 12.823 12.823 0 0 0 13.005 21.14s-.232 3.326-.464 6.806c-.4 6.04-.16 10.619 3.636 14l2.011-3.481 1.7 3.4L22.8 39.7z"></path><path d="M26 11.163c-7.038 0-11.359 6.324-10.828 15.005.463 7.579 4.872 12.916 10.828 12.916 5.955 0 10.364-5.337 10.828-12.916.531-8.681-3.79-15.005-10.828-15.005z" fill="#fff" stroke="#bfbfbf" stroke-width="2.475"></path><path d="M26 8.843l8.2 3.4 3.558 7.038.929 5.723s.077 4.177-.929 5.646c0 0-7.579-9.126-8.2-16.783L26 15.881l-3.559-2.011c-.619 7.657-8.2 16.783-8.2 16.783-1.006-1.469-.929-5.646-.929-5.646l.929-5.723 3.559-7.038z"></path></g></svg>