<svg id="305a90cc-6a28-42c2-87d9-7b72498cc4e0" viewbox="0 0 52 52"><g data-name="85" id="721d3828-2c89-49c1-aa70-8060efa55cb4"><path d="M12.587 29.659l-1 8.663L17 43.385l-.288-3.825L21 44.172l2-4.612 3 4.065 3-4.065 2 4.612 4.288-4.612-.287 3.825 5.412-5.063-1-8.663"></path><path d="M26 11.287c-7.039 0-11.36 6.323-10.829 15 .464 7.58 4.873 12.917 10.829 12.917s10.364-5.337 10.828-12.917c.532-8.677-3.79-15-10.828-15z" fill="#fff" stroke="#bfbfbf" stroke-width="2.475"></path><path d="M35.9 11.828c1.616 1.789 2.374 4.669 3.5 7.932a17.6 17.6 0 0 1 .9 4.487l2.588 5.524a71.437 71.437 0 0 1-5.3 6.638l-2.375-6.862.687-4.388-5.737-11.138A35.452 35.452 0 0 1 26 15.128v-6.1c2.914.005 7.013-.397 9.9 2.8zM16.1 11.828c-1.616 1.789-2.374 4.669-3.5 7.932a17.6 17.6 0 0 0-.9 4.487l-2.588 5.524a71.437 71.437 0 0 0 5.3 6.638l2.375-6.862-.687-4.388 5.737-11.138A35.428 35.428 0 0 0 26 15.128v-6.1c-2.914.005-7.013-.397-9.9 2.8z"></path><path d="M17.75 19l.875 6.5s9-5.75 12.75-11.375V11H18.75z"></path></g></svg>