<svg id="51903eeb-2347-4b9a-96bf-b018d85c26dc" viewbox="0 0 52 52"><g data-name="46" id="485425d8-50ec-475a-9359-1fe291706687"><path d="M38.3 21.13c0-9.094-5.226-12.808-12.3-12.808S13.7 12.036 13.7 21.13"></path><path d="M26 11.185c-7.038 0-11.359 6.324-10.828 15.005.463 7.58 4.872 12.916 10.828 12.916 5.955 0 10.364-5.336 10.828-12.916.531-8.681-3.79-15.005-10.828-15.005z" fill="#fff" stroke="#bfbfbf" stroke-width="2.475"></path><path d="M37.992 15.319l-6.5-5.759.063.883-.682-.65-10.365-.233-6.5 5.759-.15 10.1a20.138 20.138 0 0 0 6.036-7.191 9.29 9.29 0 0 0 3.138.783 6.648 6.648 0 0 1-2.405 2.834s4.129-.059 6.679-1.719a10.327 10.327 0 0 0 1.394-1.088 9.688 9.688 0 0 0 3.409-.813 20.138 20.138 0 0 0 6.036 7.191z"></path><path d="M18.265 11.572s-8.539.15-9.823 7.656C6.9 28.278 13.547 30.6 13.547 30.6s-1.393-9.05 1.856-11.448a26.814 26.814 0 0 0 5.569-5.878zM33.734 11.572s8.538.15 9.823 7.656C45.1 28.278 38.452 30.6 38.452 30.6s1.393-9.05-1.856-11.448a26.814 26.814 0 0 1-5.569-5.878z"></path></g></svg>