<svg id="1a25cf05-8b4c-4af6-9f71-9cc805762b42" viewbox="0 0 52 52"><g data-name="75" id="f6ded76e-1ee7-44e4-87a0-e46a53c01e49"><path d="M26 22.677l12.271.413 3.404 5.98-1.863.618.437 6.937-1.312-1.812-.5 3.187-2.062-1-2 2.625L26 35.938h-.001l-8.374 3.687-2-2.625-2.063 1-.5-3.187-1.312 1.812.437-6.937-1.863-.618 3.404-5.98 12.271-.413H26z"></path><path d="M26 11.1c-7.039 0-11.36 6.323-10.829 15 .464 7.585 4.872 12.922 10.829 12.922 5.955 0 10.364-5.337 10.828-12.916C37.359 17.425 33.038 11.1 26 11.1z" fill="#fff" stroke="#bfbfbf" stroke-width="2.475"></path><path d="M26 12.569l10.75 16.806 1.625-6.25 1.499 6.625 2.301-.883-3.469-12.387 3.469-2.511-7.449-3.299 2.234-4.15L26 8.86 15.038 6.52l2.235 4.15-7.449 3.299 3.469 2.511-3.469 12.387 2.3.883 1.5-6.625 1.625 6.25 10.75-16.806"></path><path d="M30.75 12.625S29 19.875 26 24.75c-3-4.875-4.75-12.125-4.75-12.125"></path></g></svg>