<svg class="_31GRkaKLLh07JK-xJvjUvH_0" viewbox="0 0 48 48"><path d="M28.43 24.84a7.41 7.41 0 0 0-8.86 0 8.18 8.18 0 0 0-2.83 5.07l2.36-1 1 1.91 1.93-1.59 1.92 2 1.92-2 1.93 1.59 1-1.91 2.36 1a8.18 8.18 0 0 0-2.73-5.07z"></path><path d="M27.91 36.8l-1-1.8-1.05-1.8-.95.65-.94.64-.97-.64-1-.65-1 1.64-1 1.63 3.91.16zM24 11.8a9.81 9.81 0 0 1 7.43 3.57A13.25 13.25 0 0 1 34.51 24a13.25 13.25 0 0 1-3.08 8.63A9.81 9.81 0 0 1 24 36.2a9.81 9.81 0 0 1-7.43-3.57A13.25 13.25 0 0 1 13.49 24a13.25 13.25 0 0 1 3.08-8.63A9.81 9.81 0 0 1 24 11.8m0-3a12.75 12.75 0 0 0-9.55 4.45 16.13 16.13 0 0 0-4 10.75 16.13 16.13 0 0 0 4 10.75A12.75 12.75 0 0 0 24 39.2a12.75 12.75 0 0 0 9.55-4.45 16.13 16.13 0 0 0 4-10.75 16.13 16.13 0 0 0-4-10.75A12.75 12.75 0 0 0 24 8.8z"></path></svg>