<svg id="5ee2898f-18fc-4516-a69d-241d4712398e" viewbox="0 0 52 52"><g data-name="96" id="ac3eff4a-2d89-4fb3-bccc-f2f01472963c"><path d="M42.662 34.859L39.816 31.3l2.727-3.558-2.608-2.552a19.534 19.534 0 0 0-.119-4.286 13.878 13.878 0 0 0-27.633 0 19.438 19.438 0 0 0-.119 4.286l-2.608 2.553 2.727 3.557-2.846 3.559 3.563 3.557-3.444 3.855 4.8 3.2 3.913-3.2 3.914 3.2L26 43.043l3.913 2.43 3.914-3.2 3.913 3.2 4.8-3.2-3.44-3.857z"></path><path d="M26 11.317c-7.039 0-11.36 6.325-10.829 15.005C15.635 33.9 20.043 39.238 26 39.238c5.956 0 10.364-5.336 10.828-12.916.532-8.68-3.79-15.005-10.828-15.005z" fill="#fff" stroke="#bfbfbf" stroke-width="2.475"></path><path d="M35.499 24.813l3.875 3.062.116-7.327-4.921-8.716L26 9.152l-8.564 2.685-4.038 9.601-.474 5.514 4.887-.639 1.813-3.375 3.937-.625 1.188-3.75 4.25-1.063 1.187-3.312 1.938.75.187 3.062 2.938 2.875.25 3.938z"></path></g></svg>