<svg id="fd0efcb4-d71f-4031-b310-b51c4874696b" viewbox="0 0 52 52"><g data-name="76" id="ecad7730-da09-463a-a33d-0465ba0b5d15"><path d="M26 11.077c-7.038 0-11.359 6.324-10.828 15.005C15.635 33.662 20.044 39 26 39c5.955 0 10.364-5.336 10.828-12.916.531-8.684-3.79-15.007-10.828-15.007z" fill="#fff" stroke="#bfbfbf" stroke-width="2.475"></path><path d="M26 17.884a21.1 21.1 0 0 0 6.808-.851l2.629 2.629.877 10.623 4.021-5.467-.077-3.557.928-3.636-2.096-3.017-1.085-4.021L34 9.65l-2.108-2.258-3.225.514L26 6.669l-2.669 1.237-3.224-.514L18 9.65l-4 .937-1.09 4.021-2.1 3.017.928 3.636-.077 3.557 4.022 5.467.877-10.623 2.628-2.629a21.1 21.1 0 0 0 6.812.851z"></path></g></svg>