<svg id="ba9014a2-0838-4981-9969-b20932f0f08d" viewbox="0 0 52 52"><g data-name="71" id="d444e79b-4edf-4a58-8451-9969e17a2029"><path d="M39.516 28.459l1.954-4.95-1.408-2.243C38.657 14.537 33.146 8.675 26 8.675s-12.656 5.862-14.063 12.591l-1.406 2.243 1.953 4.95-1.718 4.021 3.593 3.713-.545 2.939 2.577 4.64L17.8 40.6l3.876 3.635 1.954-2.374L26 44.237l2.344-2.343 1.984 2.343L34.2 40.6l1.406 3.17 2.579-4.64-.548-2.939 3.594-3.713z"></path><path d="M26 11.288c-7.038 0-11.359 6.324-10.828 15.005.464 7.58 4.873 12.917 10.828 12.917 5.955 0 10.364-5.337 10.828-12.917.532-8.681-3.789-15.005-10.828-15.005z" fill="#fff" stroke="#bfbfbf" stroke-width="2.475"></path><path d="M12.929 27.763s8.353-4.254 10.518-8.818l-1.16 3.945 6.188-4.1a63.571 63.571 0 0 0 9.746 9.049l1.547-6.419-4.8-8.431L26.7 8.891l-8.821 2.939-5.647 9.281z"></path></g></svg>