<svg id="a5f4ec30-4b4f-4bbf-81c0-362b0fa0e701" viewbox="0 0 52 52"><g data-name="119" id="f04a1e35-32dc-4f35-8c98-114983a44bed"><path d="M26.008 11.176c-7.038 0-11.36 6.324-10.829 15.005.465 7.58 4.873 12.917 10.829 12.917 5.955 0 10.363-5.337 10.828-12.917.531-8.681-3.791-15.005-10.828-15.005z" fill="#fff" stroke="#bfbfbf" stroke-width="2.475"></path><path d="M36.031 21.927v8.894h2.475v-2.784l1.547-1.779-1.469-1.624 2.32-3.867-2.475-2.167c-1.934-6.5-5.349-9.7-12.422-9.7h.124c-7.074 0-10.488 3.2-12.422 9.7l-2.475 2.165 2.321 3.867-1.471 1.624 1.547 1.779v2.784h2.476v-8.892"></path><path d="M36 17.875V22l-1.5 2-1.5-2-2.25 2-2.312-2L26 24l-2.437-2-2.313 2L19 22l-1.5 2-1.5-2v-4.125"></path></g></svg>