<svg id="d4f4298d-daf3-4270-a3df-f61ca3c94c75" viewbox="0 0 52 52"><g data-name="35" id="1c8270f1-ff0f-40b4-ada7-c7b1db5929c4"><path d="M39.254 20.075a13.465 13.465 0 0 0-26.507 0c-1.245 6.108-1.093 12.3 1.778 14.676C18.617 38.131 26 38.131 26 38.131s7.383 0 11.475-3.38c2.873-2.372 3.025-8.568 1.779-14.676z"></path><path d="M26 11.171c-7.038 0-11.359 6.324-10.828 15 .464 7.58 4.873 12.917 10.828 12.917 5.955 0 10.364-5.337 10.828-12.917.532-8.671-3.789-15-10.828-15z" fill="#fff" stroke="#bfbfbf" stroke-width="2.475"></path><path d="M38.364 18.735l-5.248-7.151L26 9.263l-7.115 2.321-5.248 7.151-1.068 10.679s3.559-9.1 13.431-9.1 13.432 9.1 13.432 9.1z"></path></g></svg>