<svg id="01c42f15-3d13-4b10-9d03-88ed72f4d8c6" viewbox="0 0 52 52"><g data-name="131" id="7c02e25c-3a5f-4495-9183-378cc01cbfb7"><path d="M12.587 29.659l-1 8.663 5.414 5.063-.289-3.825 4.289 4.612 2-4.612L26 43.625l3-4.065 2 4.612 4.289-4.612L35 43.385l5.414-5.063-1-8.663"></path><path d="M26 11.287c-7.039 0-11.36 6.323-10.829 15 .464 7.58 4.873 12.917 10.829 12.917s10.364-5.337 10.829-12.917c.531-8.677-3.79-15-10.829-15z" fill="#fff" stroke="#bfbfbf" stroke-width="2.475"></path><path d="M40.3 24.247a17.6 17.6 0 0 0-.9-4.487c-1.125-3.263-1.884-6.143-3.5-7.932-2.887-3.2-6.986-2.795-9.9-2.795s-7.013-.4-9.9 2.8c-1.616 1.789-2.375 4.669-3.5 7.932a17.6 17.6 0 0 0-.9 4.487l-2.588 5.519a71.324 71.324 0 0 0 5.3 6.638l2.375-6.862-.687-4.388 5.737-11.138A35.428 35.428 0 0 0 26 15.128a35.4 35.4 0 0 0 4.164-1.107L35.9 25.159l-.688 4.388 2.375 6.862a71.324 71.324 0 0 0 5.3-6.638z"></path></g></svg>