<svg id="93c64a6e-b8c8-4092-9ff0-1af5bef646dc" viewbox="0 0 52 52"><g data-name="103" id="24269ae3-367e-40db-8dcb-5aac6ff9b014"><path d="M26 11.055c-7.039 0-11.36 6.324-10.829 15.005.464 7.579 4.873 12.917 10.829 12.917 5.955 0 10.363-5.338 10.828-12.917.532-8.681-3.789-15.005-10.828-15.005z" fill="#fff" stroke="#bfbfbf" stroke-width="2.475"></path><path d="M26 9.894A12.808 12.808 0 0 0 13.192 22.7v5.22l3.617-7s3.143-8.837 9.191-8.837 9.191 8.839 9.191 8.839l3.617 7V22.7A12.808 12.808 0 0 0 26 9.894z"></path><path d="M31.218 11.629A5.219 5.219 0 1 1 26 6.41a5.218 5.218 0 0 1 5.218 5.219z"></path><path d="M13.191 27.92a26.085 26.085 0 0 1 17.642-10.67 83.494 83.494 0 0 1 7.975 10.67L36 16.5 26 9.833l-9.25 5.833-2.833 7z"></path></g></svg>