<svg id="89338c60-087e-4dbc-9c02-718202e7ba0b" viewbox="0 0 52 52"><g data-name="19" id="64e4d569-8362-4427-9f1b-2cc33563786f"><path d="M16.927 29.2a13.137 13.137 0 0 0-4.463 7c-1.478 6.4-4.486 7.348-4.486 7.348s5.2 2.823 8.276-.078c2.707-2.552 3.209-8.746 5.878-10.519zM35.072 29.2a13.137 13.137 0 0 1 4.463 7c1.478 6.4 4.486 7.348 4.486 7.348s-5.2 2.823-8.276-.078c-2.707-2.552-3.209-8.746-5.878-10.519z"></path><path d="M13.14 28.231L26 36.27l12.669-8.039a14.49 14.49 0 0 0 .494-3.764v-2.4a13.613 13.613 0 0 0-2.4-7.747 12.789 12.789 0 0 0-21.519 0 13.622 13.622 0 0 0-2.4 7.747v2.4a23.451 23.451 0 0 0 .296 3.764z"></path><path d="M26 11.288c-7.039 0-11.36 6.324-10.829 15.005.464 7.58 4.873 12.916 10.829 12.916s10.364-5.336 10.828-12.916c.532-8.681-3.79-15.005-10.828-15.005z" fill="#fff" stroke="#bfbfbf" stroke-width="2.475"></path><path d="M13.14 28.231s12.237-7.144 18.2-12.3l7.333 12.3a14.49 14.49 0 0 0 .494-3.764v-2.4a13.613 13.613 0 0 0-2.4-7.747 12.789 12.789 0 0 0-21.519 0 13.622 13.622 0 0 0-2.4 7.747v2.4a23.451 23.451 0 0 0 .292 3.764z"></path></g></svg>