<svg id="45f92b71-66b4-4138-b090-46c3901a7a01" viewbox="0 0 52 52"><g data-name="120" id="daef1b9c-b7f5-4d7c-9eff-56b5698eb35e"><path d="M39.071 22.9s.618 14.772 2.088 16.783a32.152 32.152 0 0 1-5.1-2.088l.773 4.176-6.187-2.707L26 43l-4.641-3.945-6.188 2.707.774-4.176a32.186 32.186 0 0 1-5.105 2.088c1.469-2.007 2.088-16.774 2.088-16.774"></path><path d="M26 11.215c-7.039 0-11.36 6.324-10.829 15.005.464 7.58 4.873 12.917 10.829 12.917S36.364 33.8 36.828 26.22c.532-8.681-3.79-15.005-10.828-15.005z" fill="#fff" stroke="#bfbfbf" stroke-width="2.475"></path><path d="M26 22.688l2.25-2.626 2 2.75L32.188 20a15.113 15.113 0 0 0 3.248 2.115c.7 2.32.077 10.834.077 10.834 3.171-2.011 4.927-5.774 4.1-11.911C38.684 14.154 31.878 8.756 26 8.756s-12.685 5.4-13.613 12.282c-.828 6.137.928 9.9 4.1 11.911 0 0-.619-8.514.077-10.834A15.1 15.1 0 0 0 19.812 20l1.937 2.812 2-2.75z"></path></g></svg>