<svg class="_31GRkaKLLh07JK-xJvjUvH_0" viewbox="0 0 48 48"><path d="M33.47 17.93c-1.08.78-1 2.52-1 5.09v15.72a1.07 1.07 0 0 0 0 2.13h1.35a1.06 1.06 0 0 0 .85-1.67v-7.88a.63.63 0 0 1 1.26 0v7.88a1.06 1.06 0 0 0 .84 1.67h1.36a1.07 1.07 0 0 0 0-2.13V23c0-2.57.07-4.31-1-5.09a5.74 5.74 0 0 1-1.82.29 5.84 5.84 0 0 1-1.84-.27zM40.53 12.36a5.23 5.23 0 1 0-5.23 5.23 5.23 5.23 0 0 0 5.23-5.23zM10.89 27.31c-1.1.77-1 2.51-1 5.09v6.35a1.06 1.06 0 0 0 .06 2.12h1.36a1.06 1.06 0 0 0 .78-1.75v-3.5a.63.63 0 0 1 1.26 0v3.5a1.1 1.1 0 0 0-.25.69 1 1 0 0 0 1 1.06h1.35a1.06 1.06 0 0 0 .06-2.12V32.4c0-2.58.08-4.32-1-5.09a5.79 5.79 0 0 1-3.62 0zM17.93 21.73A5.23 5.23 0 1 0 12.7 27a5.23 5.23 0 0 0 5.23-5.27z"></path></svg>