<svg id="170fca92-5a3d-4cd7-880e-94f9c71e6eaa" viewbox="0 0 52 52"><g data-name="60" id="cc0ddd4b-e6f7-4cd0-9782-98a79309b02d"><path d="M38.143 29.047L35.9 44.594l-3.635-4.332L26 45.289l-6.266-5.027-3.635 4.332-2.243-15.547"></path><path d="M26 11.336c-7.039 0-11.36 6.323-10.829 15C15.635 33.92 20.044 39.257 26 39.257S36.364 33.92 36.828 26.34c.532-8.681-3.79-15.004-10.828-15.004z" fill="#fff" stroke="#bfbfbf" stroke-width="2.475"></path><path d="M26 8.876c5.878 0 12.565 5.415 13.612 12.282a29.174 29.174 0 0 1-1.392 13.381s-2.088-7.5-2.784-9.823l-6.111-8.2c-2.011 4.176-6.5 7.58-6.5 7.58l-1.315-6.653c-1.547 2.244-4.95 7.271-4.95 7.271-.7 2.32-2.784 9.823-2.784 9.823a29.174 29.174 0 0 1-1.392-13.381c1.05-6.865 7.737-12.28 13.616-12.28"></path></g></svg>