<svg id="e54578bf-785f-4855-b105-9d7e0032d498" viewbox="0 0 52 52"><g data-name="74" id="9a650e70-8e2b-40a8-a3c9-d5004a4994ce"><path d="M26 39.815c.335 0 7.125-2.815 7.125-2.815l1 3 2.5-3.125.919 2.855a13.8 13.8 0 0 0 3.481-5.309c1.752-5.751.425-10.266-.793-13.922C38.375 14.931 33.072 8.434 26 8.434S13.623 14.931 11.767 20.5c-1.218 3.656-2.545 8.171-.793 13.922a13.8 13.8 0 0 0 3.481 5.309l.919-2.855 2.5 3.124 1-3s6.79 2.815 7.126 2.815z"></path><path d="M26 11.09c-7.039 0-11.36 6.324-10.829 15.005.464 7.579 4.872 12.916 10.829 12.916 5.956 0 10.365-5.337 10.828-12.916C37.359 17.414 33.037 11.09 26 11.09z" fill="#fff" stroke="#bfbfbf" stroke-width="2.475"></path><path d="M13.131 27.638s12.249-2.7 18.436-12.371a61.311 61.311 0 0 0 2.707 6.651c2.368 4.6 5.185 5.72 5.185 5.72l-3.328-14.305L27 8.77l-7.58 1.856-5.937 7.82z"></path></g></svg>