<svg id="ef83baaf-1889-4cb5-9859-5dab6719c61b" viewbox="0 0 52 52"><g data-name="121" id="9f63f4d6-2431-4f1b-bbb2-f51ae5261475"><path d="M25.999 6.324L23.37 8.258l-2.475-1.082-1.779 2.784-3.481.077-.309 3.326-3.945 4.022 1.238 5.027-.624 3.79L19.999 35l.973.5 5.027.618 5.028-.618.972-.5 8.005-8.798-.624-3.79 1.238-5.027-3.945-4.022-.309-3.326-3.481-.077-1.779-2.784-2.475 1.082-2.63-1.934z"></path><path d="M26 11.043c-7.038 0-11.359 6.323-10.828 15C15.636 33.623 20.045 38.96 26 38.96c5.955 0 10.364-5.337 10.828-12.917.532-8.677-3.789-15-10.828-15z" fill="#fff" stroke="#bfbfbf" stroke-width="2.475"></path><path d="M26.874 21.312a38.422 38.422 0 0 0 3.438-3.124 21 21 0 0 1 4 6.062l1.278-2.23 3.547 6.96.547-3.628-1.619-7.89-3.248-5.491L26 9.109l-8.817 2.862-3.248 5.491-1.619 7.89.547 3.628 3.547-6.96 1.277 2.23a21.021 21.021 0 0 1 4-6.062l.875 6a29.458 29.458 0 0 0 4.312-2.876z"></path></g></svg>