<svg id="cd8e25b5-acf6-47c4-9066-fc542851c9c4" viewbox="0 0 52 52"><g data-name="107" id="e1ea61b6-6ca8-48e2-b397-c579ab44d9c0"><path d="M26 11.157c-7.039 0-11.36 6.323-10.829 15.005.465 7.58 4.874 12.916 10.829 12.916 5.957 0 10.365-5.336 10.829-12.916.532-8.682-3.79-15.005-10.829-15.005z" fill="#fff" stroke="#bfbfbf" stroke-width="2.475"></path><path d="M38.808 22.361a12.808 12.808 0 1 0-25.615 0 23.482 23.482 0 0 0 .621 7.442l3.248-8.814 1.814 2.136L21 19.2l3 4.288 4.374-4.737 3.126 5.124 2.438-2.886L35 25.25l1.852-2.207 1.334 6.76a23.5 23.5 0 0 0 .622-7.442z"></path><path d="M20.501 10.875l-8.625 2L13.751 16l-3.5.75 3.125 7.75"></path></g></svg>