<svg id="0f8d69b0-6e9e-455e-bca0-c3d53064a079" viewbox="0 0 52 52"><g data-name="9" id="43f563d9-9a29-41cf-b139-e162956c763a"><path d="M31.585 32.015s-3.989 4.01-2.4 8.3a7.657 7.657 0 0 0 7.012 5.043 7.655 7.655 0 0 0 2.4-8.3c-1.397-4.351-7.012-5.043-7.012-5.043z"></path><path d="M26 11.317c-7.039 0-11.36 6.324-10.829 15.005C15.635 33.9 20.044 39.238 26 39.238s10.364-5.337 10.828-12.916c.532-8.681-3.79-15.005-10.828-15.005z" fill="#fff" stroke="#bfbfbf" stroke-width="2.475"></path><path d="M26 12.941l4.177 1.547c1.16 2.552 3.171 6.574 5.336 10.6 2.363 4.386 3.48 6.188 3.48 6.188s2.011-5.956.645-11.5C37.905 12.748 33.073 8.45 26 8.45c-7.074 0-11.906 4.3-13.639 11.326-1.366 5.54.644 11.5.644 11.5s1.119-1.8 3.481-6.188c2.165-4.022 4.177-8.044 5.337-10.6L26 12.941z"></path></g></svg>