<svg id="ea64df2b-90f5-48f3-88e1-621a2306e89f" viewbox="0 0 52 52"><g data-name="0" id="6c3f284d-7bf8-40ab-8afc-a4e4f3bde366"><path d="M26 39.818c3.336 0 7.038 1.083 10.054 1.237a10.349 10.349 0 0 0 6.729-1.779 7.442 7.442 0 0 1-3.326-6.11c.065-3.325.557-7.2 0-11.06C38.3 14.062 33.074 9.112 26 9.112c-7.073 0-12.3 4.95-13.458 12.994-.557 3.862-.064 7.735 0 11.06a7.442 7.442 0 0 1-3.326 6.11 10.351 10.351 0 0 0 6.729 1.779c3.016-.155 6.719-1.237 10.055-1.237"></path><path d="M26 11.278c-7.039 0-11.36 6.324-10.829 15C15.635 33.862 20.044 39.2 26 39.2c5.955 0 10.363-5.337 10.828-12.917C37.36 17.6 33.039 11.278 26 11.278z" fill="#fff" stroke="#bfbfbf" stroke-width="2.475"></path><path d="M13.477 29.3s5.336-12.762 19.8-13.071c0 0 2.089 9.823 5.723 12.761V22.8l-1.16-4.641-3.4-5.337-4.412-2.859-5.337-.155-5.8 1.779-4.563 6.342-1.393 7.348z"></path></g></svg>