<svg id="3467af7f-b3bd-48f5-9d8a-94070e977201" viewbox="0 0 52 52"><g data-name="8" id="13455599-771e-4930-8ea3-ccdd05e905bd"><path d="M38.333 35.589a84.009 84.009 0 0 1 1.661-9.072H12.005a84.009 84.009 0 0 1 1.661 9.072c.237 3.618-.06 9.489-.06 9.489l4.032-5.812-.3 5.871 4.8-6.76L26 45.611l3.854-7.234 4.8 6.76-.3-5.871 4.032 5.812s-.286-5.871-.053-9.489z"></path><path d="M26 11.338c-7.039 0-11.36 6.325-10.829 15.005.464 7.58 4.873 12.917 10.829 12.917s10.364-5.337 10.828-12.917c.532-8.68-3.79-15.005-10.828-15.005z" fill="#fff" stroke="#bfbfbf" stroke-width="2.475"></path><path d="M26 8.622c7.073 0 11.385 4.448 13.638 11.326a45.085 45.085 0 0 1 1.839 9.606s-3.579-.69-8.129-5.531a19.194 19.194 0 0 1-4.564-8.276L26 16.134l-2.785-.387a19.194 19.194 0 0 1-4.564 8.276c-4.55 4.841-8.128 5.531-8.128 5.531a45.049 45.049 0 0 1 1.838-9.606C14.614 13.07 18.926 8.622 26 8.622z"></path></g></svg>