<svg id="96ae0c35-81da-4557-9f5f-8091ab09d21d" viewbox="0 0 52 52"><g data-name="59" id="49947575-fd68-4307-bf6d-2f68a1bce98b"><path d="M26 11.037c-7.038 0-11.359 6.324-10.828 15.005.464 7.58 4.873 12.916 10.828 12.916 5.955 0 10.364-5.336 10.828-12.916.532-8.681-3.789-15.005-10.828-15.005z" fill="#fff" stroke="#bfbfbf" stroke-width="2.475"></path><path d="M26 7.016c-7.073 0-12.808 7.347-12.808 15.609v7.13H15.4s-1.933-12.608 6.188-16.784c0 0 .7 1.469 4.408 1.469s4.409-1.469 4.409-1.469C38.53 17.147 36.6 29.755 36.6 29.755h2.212v-7.13C38.809 14.363 33.073 7.016 26 7.016z"></path></g></svg>