<svg id="e02716b8-8e3d-4bea-9f70-14dfa837ba70" viewbox="0 0 52 52"><g data-name="40" id="3c3d4d77-7e80-4e4e-b338-02bea1ae0a82"><path d="M26 11.162c-7.038 0-11.359 6.323-10.828 15 .464 7.58 4.873 12.917 10.828 12.917 5.955 0 10.364-5.337 10.828-12.917.531-8.677-3.79-15-10.828-15z" fill="#fff" stroke="#bfbfbf" stroke-width="2.475"></path><path d="M38.3 18.432C36.955 13.183 33.072 8.78 26 8.78s-10.955 4.4-12.3 9.652a22.309 22.309 0 0 0 0 10.828l1.78-8.971.618 1.237 2.478-3.944 2.478 2.474 2.471-2.474L26 20.056l2.474-2.474 2.472 2.474 2.477-2.474 2.477 3.944.62-1.237 1.78 8.971a22.309 22.309 0 0 0 0-10.828z"></path></g></svg>