<svg id="36986599-d2c4-4ef5-a36f-0bfe80246808" viewbox="0 0 52 52"><g data-name="114" id="3b071902-a1f6-4c40-bf81-6ab4c5693def"><path d="M38.3 21.13c0-9.094-5.225-12.808-12.3-12.808S13.7 12.036 13.7 21.13"></path><path d="M26 11.185c-7.038 0-11.359 6.324-10.828 15.005.463 7.58 4.872 12.916 10.828 12.916 5.955 0 10.364-5.336 10.828-12.916.532-8.681-3.789-15.005-10.828-15.005z" fill="#fff" stroke="#bfbfbf" stroke-width="2.475"></path><path d="M26 14.812a11.15 11.15 0 0 1 6.375 1.5c4.545 2.938 5.768 9.1 5.768 9.1l-.149-10.1-6.5-5.759H20.508l-6.5 5.759-.149 10.1s1.223-6.166 5.768-9.1a11.151 11.151 0 0 1 6.373-1.5z"></path><path d="M18.265 11.572s-8.539.15-9.822 7.657c-1.547 9.049 5.1 11.37 5.1 11.37s-1.392-9.05 1.857-11.448a26.8 26.8 0 0 0 5.568-5.878zM33.735 11.572s8.538.15 9.822 7.657c1.547 9.049-5.1 11.37-5.1 11.37s1.392-9.05-1.857-11.448a26.8 26.8 0 0 1-5.568-5.878z"></path></g></svg>