<svg class="_31GRkaKLLh07JK-xJvjUvH_0" viewbox="0 0 48 48"><path d="M24 38.67c-2.47 0-12.48-8-12.91-15.29a13.37 13.37 0 0 1 3.54-10.09 12.71 12.71 0 0 1 9.37-4 12.75 12.75 0 0 1 9.38 4 13.37 13.37 0 0 1 3.53 10.09C36.44 30.7 26.42 38.67 24 38.67zM24 12a10.13 10.13 0 0 0-7.46 3.13 10.78 10.78 0 0 0-2.82 8.13C14 29 22.15 35.37 24 36c1.8-.64 10-7 10.28-12.78a10.74 10.74 0 0 0-2.82-8.13A10.1 10.1 0 0 0 24 12z"></path><path d="M23.83 31.08a5.88 5.88 0 0 1-3.8-1.4 1.05 1.05 0 1 1 1.41-1.56 3.84 3.84 0 0 0 4.93-.07 1.06 1.06 0 0 1 1.25 1.7 6.37 6.37 0 0 1-3.79 1.33zM19.71 21.43a1.7 1.7 0 1 0 1.71 1.7 1.7 1.7 0 0 0-1.71-1.7zM28 21.43a1.7 1.7 0 1 0 1.7 1.7 1.7 1.7 0 0 0-1.7-1.7z"></path></svg>