<svg id="f7e378c4-d50f-4593-9660-3122f9f64f08" viewbox="0 0 52 52"><g data-name="89" id="25fe76a5-0c33-4d78-b468-c23e7d118e45"><path d="M25.999 25.423l12.126 2.16L35 38l-2.167-1.043-2.922 1.167-3.912-1.25-3.91 1.25-2.923-1.167L17 38l-3.126-10.417 12.125-2.16M12.107 20.307l1.47 2.384 1.784.117.656-4.814-1.626-.245-2.284 2.558z"></path><path d="M11.813 25.25l1.437 2.875 2.662-.618.026-4.045-2.444.038-1.681 1.75zM39.892 20.307l-1.47 2.384-1.784.117-.656-4.814 1.626-.245 2.284 2.558zM40.187 25.25l-1.438 2.875-2.662-.618-.025-4.045 2.443.038 1.682 1.75z"></path><path d="M26 11.117c-7.038 0-11.36 6.323-10.829 15C15.639 33.7 20.047 39.038 26 39.038c5.956 0 10.365-5.337 10.828-12.917.535-8.681-3.786-15.004-10.828-15.004z" fill="#fff" stroke="#bfbfbf" stroke-width="2.475"></path><path d="M15.249 16.875L16.374 18l3-3.125-.375-2.5.75-.5L21.624 14l3-.625 1.375-3.545-4-.58-2.167 2.416-1.083.709-3.375 1.25-.125 3.25zM36.75 16.875L35.625 18l-3-3.125.375-2.5-.75-.5L30.375 14l-3-.625-1.376-3.545L30 9.25l2.167 2.416 1.083.709 3.375 1.25.125 3.25z"></path></g></svg>