<svg id="9499cdc8-655b-4ff9-9fe2-28cf644a7f44" viewbox="0 0 52 52"><g data-name="70" id="ca66de7b-f636-4130-904c-5a3fecb0b43c"><path d="M26 11.12c-7.038 0-11.359 6.324-10.828 15.005C15.634 33.7 20.043 39.041 26 39.041c5.955 0 10.364-5.337 10.828-12.916.53-8.681-3.791-15.005-10.828-15.005z" fill="#fff" stroke="#bfbfbf" stroke-width="2.475"></path><path d="M36.517 25.2v4.56h2.167v-4.022c3.17-.7 2.01-5.491.386-8.276-2.127-3.646-6-8.724-13.072-8.724s-10.944 5.078-13.071 8.724c-1.624 2.785-2.785 7.58.386 8.276v4.022h2.166V25.2a50.745 50.745 0 0 0 12.298-10.6l2.088.464 2.166-.464s1.935 8.045 4.486 10.6z"></path></g></svg>