<svg id="2b0d11ac-52fd-4760-b7cb-ad8756c73b1d" viewbox="0 0 52 52"><g data-name="83" id="63d7c342-72a9-40d8-8b76-d3dc0f3a90c5"><path d="M26 8.127l-7.42-.697-3.17 2.571-3.229 2.124-.99 3.126-2.687 2.576 1.052 3.34-1.723 3.167 1.808 4-.775 2.833 3.616 3.5 8.296-4.754L26 33.728M26 8.127l7.42-.697 3.17 2.571 3.23 2.124.989 3.126 2.687 2.576-1.051 3.34 1.723 3.167-1.809 4 .776 2.833-3.617 3.5-8.295-4.754L26 33.728"></path><path d="M26 11.127c-7.038 0-11.36 6.324-10.828 15.005.464 7.58 4.873 12.917 10.828 12.917 5.955 0 10.365-5.337 10.829-12.917.531-8.681-3.79-15.005-10.829-15.005z" fill="#fff" stroke="#bfbfbf" stroke-width="2.475"></path><path d="M26 8.343l-8.2 2.475-4.485 6.342-.85 9.127 3.2-2.2.833-3.916 4.334-2.917a19.032 19.032 0 0 0 2.25-3.5l2.918.081M26 8.343l8.2 2.475 4.487 6.342.849 9.127-3.2-2.2-.836-3.919-4.334-2.917a19.032 19.032 0 0 1-2.25-3.5L26 13.835"></path></g></svg>