<svg id="72a87a07-28ee-4e75-ad9e-96ac43b6ae20" viewbox="0 0 52 52"><g data-name="123" id="09d76cf7-e124-4bb9-8796-19dec1166f1b"><path d="M12.48 21.31c-1.1 8.186 2.072 15.224 3.465 18.008 1.478 2.956 6.141 4.548 10.054 4.548V8.444c-7.072 0-12.421 4.682-13.519 12.866zM39.521 21.31C38.423 13.126 33.074 8.444 26 8.444v35.422c3.913 0 8.577-1.592 10.055-4.548 1.393-2.784 4.564-9.818 3.466-18.008z"></path><path d="M26 11.243c-7.039 0-11.36 6.323-10.829 15.005.464 7.579 4.873 12.916 10.829 12.916s10.364-5.337 10.828-12.916c.532-8.682-3.79-15.005-10.828-15.005z" fill="#fff" stroke="#bfbfbf" stroke-width="2.475"></path><path d="M13.5 17.25s-3.229 7-4.45 10.866c-1.425 4.509-1.748 8.53.075 11.009 3.125 4.25 8.475 4.142 8.475 4.142s-2.514-2.207-2.4-7.65c.135-6.472 1.272-16.4 1.575-17.026 2.268-4.669 5.85-5.4 9.225-6.265V9.31l-6.42 1.314z"></path><path d="M38.5 17.25s3.228 7 4.45 10.866c1.425 4.509 1.749 8.53-.075 11.009-3.125 4.25-8.475 4.142-8.475 4.142s2.514-2.207 2.4-7.65c-.135-6.472-1.272-16.4-1.575-17.026-2.268-4.669-5.85-5.4-9.225-6.265V9.31l6.42 1.314z"></path><path d="M15.667 27.167a55.432 55.432 0 0 0 19.916-8.916L34.5 13.667 26 9.815l-10.417 5.6-1.833 11.252z"></path></g></svg>