<svg id="602e05f1-a1c9-4560-a9b7-e9316f00d5fb" viewbox="0 0 52 52"><g data-name="38" id="017e722e-716b-4631-b3d9-f6de3e5cdbfe"><path d="M26 11.111c-7.039 0-11.36 6.324-10.829 15.005C15.635 33.7 20.044 39.032 26 39.032s10.364-5.337 10.828-12.916c.532-8.681-3.79-15.005-10.828-15.005z" fill="#fff" stroke="#bfbfbf" stroke-width="2.475"></path><path d="M31.337 7.786l-.928 2.552-2.321-3.79L26 9.333l-2.089-2.785-2.321 3.79-.927-2.552c-9.707 9.706-7.58 22.584-7.58 22.584h2.538c-.044-1.558-.077-6.638 1.793-9.977 2.233-3.987 4.022-5.878 8.586-5.878s6.353 1.891 8.585 5.878c1.87 3.339 1.837 8.419 1.793 9.977h2.539s2.127-12.878-7.58-22.584z"></path></g></svg>