<svg id="3ecc63de-0bcc-4b79-9463-472657d87351" viewbox="0 0 52 52"><g data-name="109" id="e1c6d237-fdfa-4eaf-9aed-d87f7736456e"><path d="M26.283 11.128c-7.039 0-11.36 6.324-10.828 15.005.464 7.579 4.872 12.916 10.828 12.916 5.955 0 10.363-5.337 10.828-12.916.532-8.681-3.79-15.005-10.828-15.005z" fill="#fff" stroke="#bfbfbf" stroke-width="2.475"></path><path d="M26.282 9.456a13.07 13.07 0 0 1 13.226 11.881c.38 5.282-.309 6.42-1.8 9.223 0 0-.754-3.886-1.45-7.212-.633-3.02-1.238-9.43-1.238-9.43H17.542s-.605 6.41-1.238 9.43c-.7 3.326-1.45 7.212-1.45 7.212-1.489-2.8-2.177-3.941-1.8-9.223A13.07 13.07 0 0 1 26.282 9.456z"></path><path d="M35.331 13.139l-5.159 2.38-4.355-5.474a7.131 7.131 0 0 1 5.7-3.113c3.611.088 5.871 2.935 6.849 5.6 1.056 2.88 1 7.908 3.226 9.266a5.581 5.581 0 0 0 3.093.851s-2.676 5.279-7.657.387z"></path><path d="M14.166 24.667S25 24.251 31.166 16c0 0 3.416 3.5 6.083 11.417l-.833-12.75L28.249 11l-10.917 2.418z"></path></g></svg>