<svg id="cac3e721-dae5-43e7-8e41-f5994cb06cc5" viewbox="0 0 52 52"><g data-name="122" id="ae5c2862-67ad-49da-9858-f30ea610ccf2"><path d="M39.744 17.771c-1.76-5.565-6.08-9.9-13.745-9.9s-11.984 4.337-13.744 9.9C10.877 22.131 6.892 35.623 26 36.564c19.107-.941 15.122-14.433 13.744-18.793z"></path><path d="M26 11.118c-7.038 0-11.359 6.323-10.828 15C15.635 33.7 20.043 39.039 26 39.039c5.956 0 10.364-5.337 10.828-12.917.532-8.681-3.79-15.004-10.828-15.004z" fill="#fff" stroke="#bfbfbf" stroke-width="2.475"></path><path d="M29.558 17.228c4.718 3.093 8.585 11.06 8.585 11.06l.231-6.42-1.314-5.259-2.552-3.79-3.558-2.552L26 9.416l-4.95.851-3.558 2.552-2.552 3.79-1.315 5.259.232 6.42s3.867-7.967 8.585-11.06l6.961.078"></path><path d="M34.812 21.594l-2.203.75-2.203-.75-2.203.75-2.204-.75-2.203.75-2.203-.75-2.203.75-2.203-.75v-7.531h17.937l-.312 7.531z"></path></g></svg>