<svg id="114645f6-4d23-4dc8-a7c5-c9e6a1d2e1fe" viewbox="0 0 52 52"><g data-name="55" id="c91a3f82-618f-4fd4-bb78-17779fbb434f"><path d="M26 11.157c-7.039 0-11.36 6.323-10.829 15.005.464 7.579 4.873 12.916 10.829 12.916s10.364-5.337 10.828-12.916C37.36 17.48 33.038 11.157 26 11.157z" fill="#fff" stroke="#bfbfbf" stroke-width="2.475"></path><path d="M38.5 27.477v-6.2A12.657 12.657 0 0 0 26 8.466a12.657 12.657 0 0 0-12.5 12.809v6.2l2.6-7.271a11.068 11.068 0 0 1 6.574-2.938c4.787-.369 8.926-.149 10.287-2.012 0 0 .773 4.254 2.862 6.266z"></path></g></svg>