<svg id="38825c7e-d216-4e76-a198-53498ce96344" viewbox="0 0 52 52"><g data-name="43" id="54512fa2-40bc-4308-8a57-69b5f27a01fe"><path d="M26.022 11.09c-7.039 0-11.36 6.324-10.829 15.005.464 7.58 4.873 12.917 10.829 12.917 5.955 0 10.363-5.337 10.828-12.917.531-8.681-3.79-15.005-10.828-15.005z" fill="#fff" stroke="#bfbfbf" stroke-width="2.475"></path><path d="M40.948 14.416a12.351 12.351 0 0 0-4.873-.7 6.1 6.1 0 0 1 1.934-2.707 18.88 18.88 0 0 0-6.188-.541c-4.486-4.1-14-3.094-14-3.094l2.63 2.784-7.5.387 2.94 2.707-4.409.7c1.392 2.32 1.686 7.852 1.686 8.678l.047 4.935h2.055s-.387-4.951 1.469-8.044c2.027-3.377 4.719-5.105 9.282-5.105s7.255 1.728 9.282 5.105c1.856 3.093 1.469 8.044 1.469 8.044h2.057l.047-4.935c0-.054-.008-.106-.008-.159a18.982 18.982 0 0 1 2.08-8.055z"></path></g></svg>